<svg xmlns="http://www.w3.org/2000/svg" viewBox="-63 0 266.67 266.67"><path fill="#fff" d="M41.3 73.33l-2.09 3.13 6.68 4.46 6.69-4.46-2.09-3.13-4.6 3.07zm24.44 0l-2.09 3.13 6.68 4.46 6.69-4.46-2.09-3.13-4.6 3.07zm24.44 0l-2.1 3.13 6.7 4.46 6.68-4.46-2.1-3.13-4.59 3.07zM41.3 83.67L39.2 86.8l6.68 4.46 6.69-4.46-2.09-3.13-4.6 3.07zm24.44 0l-2.09 3.13 6.68 4.46 6.69-4.46-2.09-3.13-4.6 3.07zm24.44 0l-2.1 3.13 6.7 4.46 6.68-4.46-2.1-3.13-4.59 3.07zm-53.69 11.9v12.06l24.44 24.44v16.67l18.8-4.7v-11.97l24.44-24.44V95.58zm3.76 3.77h60.16v6.74l-24.44 24.44v10.59l-11.28 2.82v-13.41l-24.44-24.44zm28.2 7.52v12.38l-2.43-2.43-2.66 2.66 6.97 6.96 6.97-6.96-2.66-2.66-2.43 2.43v-12.38zM25.21 140.7v3.76h3.76v-3.76zm86.48 0v3.76h3.76v-3.76zm-86.48 7.52v45.11h3.76v-45.11zm7.52 0v3.75h3.76v-3.75zm71.44 0v3.75h3.76v-3.75zm7.52 0v45.11h3.76v-45.11zm-41.36 3.75a20.68 20.68 0 100 41.36 20.68 20.68 0 000-41.36zm-37.6 3.76v37.6h3.76v-37.6zm7.52 0v3.76h3.76v-3.76zm30.08 0a16.92 16.92 0 110 33.84 16.92 16.92 0 010-33.84zm26.32 0v3.76h3.76v-3.76zm7.52 0v37.6h3.76v-37.6zm-35.72 3.76v3.76a5.64 5.64 0 000 11.28h3.76a1.88 1.88 0 010 3.76H64.7v3.76h3.76v3.76h3.76v-3.76a5.64 5.64 0 000-11.28h-3.76a1.88 1.88 0 010-3.76h7.52v-3.76h-3.76v-3.76zm-28.2 3.76v30.08h3.76v-30.08zm56.4 0v30.08h3.76v-30.08z"/></svg>