<svg xmlns="http://www.w3.org/2000/svg" viewBox="0 0 200 200"><path fill="#fff" d="M75.97 40L55.48 60.49v35.1a15.4 15.4 0 001.84 22.21A21.31 21.31 0 0040 138.71V160h44.52v-24.83c0-.95.36-1.83 1.03-2.5l11.38-11.38h28.23v-38.7h3.87v27.09h7.74v7.74H160V98.06h-23.23v7.75h-3.87V82.58h3.87v7.74H160V70.97h-23.23v7.74h-3.87V55.48h3.87v7.75H160V43.87h-23.23v7.74h-7.74v27.1h-3.87V40zm2.74 3.87h42.58v73.55H100.8l14.45-14.45a7.36 7.36 0 002.17-5.24v-34.5H105.8v28.41c-.37.25-.72.53-1.04.85l-2.83 2.84V78.7H90.32v23.23h5l-7.72 7.72a25.26 25.26 0 01-8.14 5.43 15.38 15.38 0 002.61-13.15h4.38V67.1H74.84v25.32a15.37 15.37 0 00-15.49 0v-29.2h19.36zm-3.87 2.74v12.74H62.09zm7.74 1.13v3.87h19.36v-3.87zm23.23 0v3.87h3.87v-3.87zm7.74 0v3.87h3.87v-3.87zm27.1 0h15.48v11.61h-15.48zm3.87 3.87v3.87h7.74v-3.87zm-61.94 3.87v3.87h34.84v-3.87zM63.23 67.1v3.87h3.87V67.1zm46.45 0h3.87v24.16a7.32 7.32 0 00-3.54-.94l-.33.03zM78.7 70.97h3.87v27.1h-2.1c-.5-.89-1.1-1.71-1.77-2.47zm-15.48 3.87v3.87h3.87v-3.87zm77.42 0h15.48v11.61h-15.48zm3.87 3.87v3.87h7.74v-3.87zm-81.3 3.87v3.87h3.88v-3.87zm30.97 0h3.87v15.48H94.2zM67.1 94.2a11.62 11.62 0 010 23.23 11.62 11.62 0 010-23.23zm42.92 0a3.54 3.54 0 012.5 6.05l-29.7 29.7a7.36 7.36 0 00-2.16 5.23v20.96h-27.1V132.9h-3.87v23.23h-5.8V138.7c0-8.38 5.95-15.4 13.85-17.05a9.67 9.67 0 009.37 7.37c5.1 0 9.24-3.97 9.6-8.98a29.22 29.22 0 0013.63-7.65l10.47-10.46 1.14-1.14 5.57-5.57a3.52 3.52 0 012.5-1.04zm30.64 7.75h15.48v11.6h-15.48zm3.87 3.87v3.87h7.74v-3.87zm-83.15 14.37a15.4 15.4 0 0011.45 0 5.8 5.8 0 01-5.72 4.98 5.8 5.8 0 01-5.73-4.98z"/></svg>