<svg xmlns="http://www.w3.org/2000/svg" viewBox="0 0 200 200"><path fill="#fff" d="M146 98h-8a2 2 0 01-2-2v-1.12a21.07 21.07 0 009.42-13 8 8 0 00.58-15.63V58a14.02 14.02 0 00-12.83-13.95 9.18 9.18 0 00-7.64-4.05H118a18.02 18.02 0 00-18 18v6a2 2 0 002 2h2v.25a8 8 0 00.57 15.62l.16.66 3.86-1.05A17.04 17.04 0 01108 77V65.94a49.42 49.42 0 0022.43-6.61 13.08 13.08 0 008.53 9.1l3.04 1.01V77a17 17 0 01-26.84 13.86l-2.32 3.26a21.05 21.05 0 003.16 1.86V96a2 2 0 01-2 2h-2v-6a8 8 0 00-8-8H48a8 8 0 00-8 8v6h4v-6a4 4 0 014-4h56a4 4 0 014 4v36a4 4 0 01-4 4H81.9l2.06-9.58A2 2 0 0082 120H68a2 2 0 00-1.84 1.21L61.54 132H48a4 4 0 01-4-4v-26h-4v26a8 8 0 008 8h11.82l-5.14 12H42a2 2 0 00-2 2v8a2 2 0 002 2h116a2 2 0 002-2v-8a2 2 0 00-2-2h-3.43a15.96 15.96 0 005.43-12v-2h-4v2a12.01 12.01 0 01-12 12h-32v-4a6 6 0 016-6h26a2 2 0 002-2v-14h10v8h4v-18a14.02 14.02 0 00-14-14zm0-21v-6.46a4 4 0 01.83 6.29 4.05 4.05 0 01-.84.64L146 77zm-44-3a3.98 3.98 0 011.17-2.83 4.04 4.04 0 01.83-.63v6.92a4 4 0 01-2-3.46zm28-19.08A45.48 45.48 0 01105.58 62H104v-2.23c17.12-2.24 23.16-8.1 23.41-8.36l-2.81-2.84c-.02.02-1.47 1.4-4.98 3-2.96 1.34-7.95 3.1-15.43 4.14a13.9 13.9 0 011.17-3.73c7.49-.21 11.36-2.1 11.53-2.2l-1.77-3.57c-.03.01-2.27 1.07-6.66 1.55A13.95 13.95 0 01118 44h7.53a5.2 5.2 0 014.47 2.51zm10.22 9.71A9.09 9.09 0 01134 56v-7.8a10.02 10.02 0 018 9.8v7.23zm-20.38 32.73a21.02 21.02 0 0012.21-.58 5.97 5.97 0 001.7 3.47 6.05 6.05 0 00.98.78l-.57.76a10.5 10.5 0 01-17.22-.56 6.02 6.02 0 002.9-3.87zM108 144v4H98v-4zm-4.25-8h.25a7.99 7.99 0 002-.25V140h-3.85zm-16 0h11.7l-1.6 4H96a2 2 0 00-2 2v6h-4v-6a2 2 0 00-2-2h-1.85zm-6.7 0h2.4l-1.6 4h-1.66zm4.95 8v4h-7.52l.85-4zm-16.68-20h10.2l-5.14 24H59.03zM156 152v4H44v-4zm0-34h-10v-6h-4v22h-24a10 10 0 00-8 4v-4.72a7.96 7.96 0 002-5.28v-26h.77a14.52 14.52 0 0024.59 2.19L139 102h7a10.01 10.01 0 0110 10zm-22.15-5.8l1.74 3.6a22 22 0 01-20.59-.75l2-3.46a18 18 0 0016.85.61zM120 72a4 4 0 11-4-4 4 4 0 014 4zm8 0a4 4 0 114 4 4 4 0 01-4-4zm.9 6.55l2.2 3.35a13.01 13.01 0 01-14.2 0l2.2-3.35a9 9 0 009.8 0zM68 98h-8v-4h8zm12-4v4h-8v-4zm12 0v4h-8v-4zm12 4h-8v-4h8zm-48-4v4h-8v-4z"/></svg>