<svg xmlns="http://www.w3.org/2000/svg" viewBox="0 0 200 200"><path fill="#fff" d="M58.8 40a7.53 7.53 0 00-7.52 7.52v74.88a7.53 7.53 0 007.52 7.52h54.35a1.76 1.76 0 000-3.51H58.8c-2.2 0-4-1.8-4-4V58.53h90.4v63.86c0 2.21-1.8 4-4 4a1.76 1.76 0 000 3.52 7.53 7.53 0 007.52-7.52V47.52A7.53 7.53 0 00141.2 40H58.8zm0 3.52h82.4c2.2 0 4 1.8 4 4v7.5H54.8v-7.5c0-2.2 1.8-4 4-4zm1.75 4a1.76 1.76 0 000 3.5h1.88a1.76 1.76 0 000-3.5h-1.88zm9.4 0a1.76 1.76 0 000 3.5h1.87a1.76 1.76 0 000-3.5h-1.87zm9.39 0a1.76 1.76 0 000 3.5h60.1a1.76 1.76 0 000-3.5h-60.1zM100 64.41c-.97 0-1.76.79-1.76 1.76v2.06a24.34 24.34 0 00-22.47 22.48H73.7a1.76 1.76 0 000 3.51h2.07a24.34 24.34 0 0022.47 22.48v2.06a1.76 1.76 0 003.52 0v-2.06a24.34 24.34 0 0022.47-22.48h2.07a1.76 1.76 0 000-3.51h-2.07a24.34 24.34 0 00-22.47-22.48v-2.06c0-.97-.79-1.76-1.76-1.76zm-1.76 7.35v9.44a1.76 1.76 0 003.52 0v-1.88a13.3 13.3 0 0111.39 11.39h-1.88a1.76 1.76 0 000 3.51h1.88a13.33 13.33 0 01-6.51 9.74 1.76 1.76 0 001.75 3.04 16.86 16.86 0 008.3-12.78h4.02a20.82 20.82 0 01-18.95 18.95v-9.43a1.76 1.76 0 00-3.52 0v1.88a13.3 13.3 0 01-11.39-11.4h1.88a1.76 1.76 0 000-3.51h-1.88a13.33 13.33 0 016.52-9.74 1.76 1.76 0 00-1.76-3.04 16.86 16.86 0 00-8.3 12.78h-4.02a20.82 20.82 0 0118.95-18.95zm3.52 0a20.81 20.81 0 0118.95 18.95h-4.02a16.82 16.82 0 00-14.93-14.94v-4.01zM79.29 94.23h4.02a16.82 16.82 0 0014.93 14.94v4.01A20.82 20.82 0 0179.3 94.23zm41.51 23.37a1.75 1.75 0 00-1.5 1.93l3.74 33.66a1.76 1.76 0 002.97 1.06l6.77-6.58 5.47 11.34a1.76 1.76 0 103.17-1.53l-5.48-11.34 9.37-1.2a1.76 1.76 0 001.01-3l-24.04-23.85c-.4-.4-.95-.57-1.48-.5zm2.54 6.5l17.95 17.8-8.22 1.07c-.37.05-.72.22-1 .48l-5.93 5.78-2.8-25.13z"/></svg>