<svg xmlns="http://www.w3.org/2000/svg" viewBox="0 0 200 200"><path fill="#fff" d="M90.52 40.02a49.98 49.98 0 1026.63 91.93l6.04 6.04 2.82 2.83 16.1 16.09a10.48 10.48 0 1014.82-14.82l-16.1-16.1-2.82-2.82-6.04-6.04a49.82 49.82 0 000-54.25l4-4a7.9 7.9 0 0011.75-4.86H160v-4h-12.28a8 8 0 00-7.71-6 8 8 0 00-8 8c0 1.42.4 2.82 1.13 4.04l-3.5 3.51a49.9 49.9 0 00-39.12-19.55zm-.7 3.86a46.05 46.05 0 0135.65 75.4l-.63.71a45.05 45.05 0 01-4.83 4.83l-.71.62a46.05 46.05 0 11-29.48-81.57zm.2 4.14a41.98 41.98 0 100 83.97 41.98 41.98 0 000-83.97zm49.99 0a4 4 0 110 8 4 4 0 010-8zm-49.98 4a37.95 37.95 0 0131.02 16.14l-5 5a7.9 7.9 0 00-4.03-1.15 8 8 0 00-8 8c0 1.42.4 2.82 1.14 4.04l-13.1 13.09a7.75 7.75 0 00-8.07 0l-9.1-9.1a7.89 7.89 0 001.14-4.03 7.98 7.98 0 00-15.7-2H52.9a38.04 38.04 0 0137.13-29.99zm33.21 19.6a37.95 37.95 0 01-33.21 56.37 37.96 37.96 0 01-37.78-41.98h8.07a7.9 7.9 0 0011.75 4.86l9.1 9.1a7.9 7.9 0 00-1.14 4.03 8 8 0 0016 0c-.01-1.42-.4-2.82-1.14-4.03l13.1-13.1a7.9 7.9 0 004.03 1.14 8 8 0 008-8c-.01-1.42-.4-2.82-1.14-4.04zm-11.22 4.4a4 4 0 110 7.99 4 4 0 010-8zm-43.99 4a4 4 0 110 7.99 4 4 0 010-8zm20 19.98a4 4 0 110 8 4 4 0 010-8zm41.62 20.46l5.53 5.53-9.17 9.17-5.53-5.53.82-.68a50.29 50.29 0 002.2-1.86l.63-.6c.82-.76 1.62-1.56 2.38-2.38l.6-.64a49.5 49.5 0 001.86-2.19l.68-.82zm8.36 8.36l16.1 16.1a6.48 6.48 0 11-9.18 9.16l-16.09-16.1z"/></svg>