<svg xmlns="http://www.w3.org/2000/svg" viewBox="-26 -26 200 200"><path fill="#fff" d="M74 29c-.83 0-1.5.67-1.5 1.5v3a1.5 1.5 0 003 0v-3c0-.83-.67-1.5-1.5-1.5zm0 9c-.83 0-1.5.67-1.5 1.5v1.54c-8.9.38-12.47 4.13-15.1 6.91l-.96.99a1.5 1.5 0 000 2.12l.95.99c2.64 2.78 6.21 6.53 15.11 6.91V65a1.5 1.5 0 003 0v-6.04c8.9-.38 12.47-4.13 15.1-6.91l.96-.99a1.5 1.5 0 000-2.12l-.95-.99c-2.64-2.78-6.21-6.53-15.11-6.91V39.5c0-.83-.67-1.5-1.5-1.5zm0 6a6 6 0 110 12 6 6 0 010-12zm-7.55 1.11a8.95 8.95 0 000 9.78c-2.67-1.01-5.04-2.7-6.86-4.89 1.82-2.2 4.19-3.88 6.86-4.89zm15.1 0c2.67 1.01 5.04 2.7 6.86 4.89a16.53 16.53 0 01-6.86 4.89 8.95 8.95 0 000-9.78zm-45.05.4A4.5 4.5 0 0032 50v52.5a3 3 0 00-3 3v6a7.5 7.5 0 007.5 7.5h75a7.5 7.5 0 007.5-7.5v-6a3 3 0 00-3-3V50a4.5 4.5 0 00-4.5-4.5h-15a1.5 1.5 0 100 3h15c.83 0 1.5.67 1.5 1.5v52.5h-3v-48a3 3 0 00-3-3H96.5a1.5 1.5 0 100 3H107v48H41v-48h10.5a1.5 1.5 0 100-3H41a3 3 0 00-3 3v48h-3V50c0-.83.67-1.5 1.5-1.5h15a1.5 1.5 0 000-3zM74 47a3 3 0 100 6 3 3 0 000-6zM56 63.5c-.83 0-1.5.67-1.5 1.5v9a1.5 1.5 0 003 0v-9c0-.83-.67-1.5-1.5-1.5zm34.5 0a9 9 0 105.2 16.33l5.74 5.73a1.5 1.5 0 002.12-2.12l-5.73-5.73A8.98 8.98 0 0090.5 63.5zm0 3a6 6 0 110 12 6 6 0 010-12zm-16.5 3c-.83 0-1.5.67-1.5 1.5v5.38l-.44-.44a1.5 1.5 0 00-2.12 2.12l3 3a1.5 1.5 0 002.12 0l3-3a1.5 1.5 0 10-2.12-2.12l-.44.44V71c0-.83-.67-1.5-1.5-1.5zm-18 9a1.5 1.5 0 100 3 1.5 1.5 0 000-3zm21 6c-.38 0-.77.15-1.06.44L74 86.88l-1.94-1.94a1.5 1.5 0 00-2.12 2.12L71.88 89l-1.94 1.94a1.5 1.5 0 102.12 2.12L74 91.12l1.94 1.94a1.5 1.5 0 002.12-2.12L76.12 89l1.94-1.94A1.5 1.5 0 0077 84.5zm15 0c-.38 0-.77.15-1.06.44L89 86.88l-1.94-1.94a1.5 1.5 0 00-2.12 2.12L86.88 89l-1.94 1.94a1.5 1.5 0 102.12 2.12L89 91.12l1.94 1.94a1.5 1.5 0 002.12-2.12L91.12 89l1.94-1.94A1.5 1.5 0 0092 84.5zm-36 .02a1.5 1.5 0 00-1.07 2.54L56.89 89l-1.94 1.94a1.5 1.5 0 002.12 2.12L59 91.12l1.94 1.94a1.5 1.5 0 002.12-2.12L61.12 89l1.94-1.94a1.5 1.5 0 00-2.12-2.12L59 86.88l-1.94-1.94a1.5 1.5 0 00-1.05-.42zm0 11.98a1.5 1.5 0 000 3h36a1.5 1.5 0 100-3zm-24 9h26.07l1.76 3.51a4.47 4.47 0 004.02 2.49h20.3c1.7 0 3.26-.96 4.02-2.49l1.76-3.51H116v3H99.5a1.5 1.5 0 000 3H116a4.5 4.5 0 01-4.5 4.5h-75a4.5 4.5 0 01-4.5-4.5h16.5a1.5 1.5 0 000-3H32zm29.43 0h25.14l-1.08 2.17c-.26.5-.78.83-1.34.83h-20.3a1.5 1.5 0 01-1.34-.83zm-6.93 3a1.5 1.5 0 000 3H56a1.5 1.5 0 100-3zm37.5 0a1.5 1.5 0 000 3h1.5a1.5 1.5 0 000-3z"/></svg>