<svg xmlns="http://www.w3.org/2000/svg" viewBox="0 0 200 200"><path fill="#fff" d="M100 40c-10.5 0-20.28 6.4-25.54 16.68-3.77 7.4-8.17 14.7-8.83 23.18a37.6 37.6 0 002.98 18.38H56.32c-.97 0-1.76.79-1.76 1.76v24.87a1.76 1.76 0 003.52 0v-23.11h83.84v47.44h-22.87a1.76 1.76 0 100 3.52h26.51v3.76H54.44v-3.76h56.95a1.76 1.76 0 100-3.52H58.08v-16.67a1.76 1.76 0 00-3.52 0v16.67h-1.88c-.97 0-1.76.8-1.76 1.76v7.28c0 .97.79 1.76 1.76 1.76h94.64c.97 0 1.76-.79 1.76-1.76v-7.28c0-.97-.79-1.76-1.76-1.76h-1.88V100c0-.97-.79-1.76-1.76-1.76h-12.3a37.57 37.57 0 002.97-18.58c-.79-8.43-5.05-15.6-8.81-22.98C120.64 47.11 111.04 40 100 40zm0 3.52c9.64 0 18.13 6.39 22.4 14.76 3.02 5.9 6.69 11.82 7.97 18.39-8.24-4.11-17.2-6.86-26.43-7.45a1.76 1.76 0 00-.22 3.5c4.03.26 8.09.96 12.16 2.09v1.6h-10.6c-2.1 0-3.22 1.83-3.4 3.63h-3.76c-.18-1.8-1.3-3.64-3.4-3.64h-10.6v-1.55a59.4 59.4 0 0112.17-2.12 1.76 1.76 0 10-.24-3.5c-9.24.6-18.21 3.4-26.45 7.58 1.27-6.62 4.96-12.6 8-18.53 4.65-9.1 13.23-14.76 22.4-14.76zm19.4 32.36c1.56.53 3.13 1.13 4.7 1.78.14.35.2.73.2 1.11v3.68c0 1.73-1.4 3.14-3.13 3.14h-1.78zm-38.8.07v9.64h-1.77a3.14 3.14 0 01-3.14-3.14v-3.68c0-.34.06-.68.17-1a70.2 70.2 0 014.75-1.82zm47.22 3.38c1.04.5 2.07 1.03 3.1 1.58.4 6.02-.8 12.1-3.42 17.33h-9.66a19.78 19.78 0 001.55-9.14h1.78a6.66 6.66 0 006.65-6.65zm-55.64.13v2.99a6.66 6.66 0 006.65 6.65h1.78c-.18 3.1.28 6.3 1.55 9.14H72.5a33.8 33.8 0 01-3.43-17.17c1.04-.57 2.07-1.1 3.1-1.61zm11.94.46H94.6v3.76H84.12zm21.28 0h10.48v3.76H105.4zm-7.28 3.64h3.76c.17 1.8 1.3 3.64 3.4 3.64h10.6c.37 3.69-.1 7.82-1.98 11.04h-11.88a6.18 6.18 0 004.15-5.82 1.76 1.76 0 10-3.52 0 2.65 2.65 0 01-5.3 0 1.76 1.76 0 00-3.52 0c0 2.69 1.74 4.98 4.15 5.82H86.1c-1.89-3.22-2.35-7.35-1.98-11.04h10.6c2.1 0 3.22-1.84 3.4-3.64zm-5.4 25.56c-.97 0-1.76.8-1.76 1.76v.08a9.01 9.01 0 002.9 6.62 9.09 9.09 0 00-2.9 2.5h-2.69a1.88 1.88 0 01-1.88-1.88 1.76 1.76 0 00-3.51 0 5.4 5.4 0 005.4 5.4h1.07c-.26 1.16-.25 2.59-.2 3.8h-5.53a1.76 1.76 0 000 3.52h5.52c-.04 1.2-.05 2.6.2 3.76h-1.06a5.4 5.4 0 00-5.4 5.4 1.76 1.76 0 003.51 0c0-1.04.85-1.88 1.89-1.88h2.65a9.01 9.01 0 007.24 3.64h3.66a9.02 9.02 0 007.24-3.64h2.65c1.04 0 1.89.84 1.89 1.88a1.76 1.76 0 103.51 0 5.4 5.4 0 00-5.4-5.4h-1.06c.25-1.15.24-2.56.2-3.76h5.52a1.76 1.76 0 100-3.52h-5.52c.04-1.21.04-2.64-.2-3.8h1.06a5.4 5.4 0 005.4-5.4 1.76 1.76 0 10-3.51 0c0 1.04-.85 1.88-1.89 1.88h-2.68a9.09 9.09 0 00-2.9-2.5c1.78-1.65 2.9-4 2.9-6.62v-.08a1.76 1.76 0 10-3.52 0v.08a5.53 5.53 0 01-11.04 0v-.08c0-.97-.79-1.76-1.76-1.76zM98.17 120h3.66a5.58 5.58 0 015.22 3.75h-14.1a5.58 5.58 0 015.22-3.75zm-5.51 7.26h5.58v11.06a5.58 5.58 0 01-5.58-5.5zm9.1 0h5.58v5.55c0 3-2.48 5.51-5.5 5.51h-.08z"/></svg>