<svg xmlns="http://www.w3.org/2000/svg" data-name="Layer 3" viewBox="0 0 200 200"><path fill="#fff" d="M57.42 40a1.94 1.94 0 00-1.94 1.94v48.38H41.94A1.94 1.94 0 0040 92.26v58.06a9.69 9.69 0 009.68 9.68h81.29a9.69 9.69 0 009.68-9.68v-8.08a31 31 0 0019.35-28.7 31 31 0 00-19.35-28.68V41.94A1.94 1.94 0 00138.7 40zm1.93 3.87h77.42V83.6a30.97 30.97 0 100 59.9v6.82a5.8 5.8 0 01-5.8 5.8h-73.6a9.58 9.58 0 001.98-5.8zm9.68 3.87a5.8 5.8 0 00-5.8 5.8V72.9a5.8 5.8 0 005.8 5.81H88.4a5.8 5.8 0 005.8-5.8V53.54a5.8 5.8 0 00-5.8-5.8zm0 3.87H88.4a1.94 1.94 0 011.93 1.94V72.9a1.94 1.94 0 01-1.93 1.94H69.03a1.94 1.94 0 01-1.93-1.94V53.55a1.94 1.94 0 011.93-1.94zm3.3 2.5l-2.73 2.74 6.37 6.38-6.37 6.37 2.74 2.74 6.37-6.38 6.37 6.38 2.74-2.74-6.37-6.37 6.37-6.38-2.74-2.73-6.37 6.37zm33.48 9.12v3.87h27.1v-3.87zm-7.75 7.74v3.87h34.84v-3.87zM69.03 82.58a5.8 5.8 0 00-5.8 5.8v19.36a5.8 5.8 0 005.8 5.8H88.4a5.8 5.8 0 005.8-5.8V88.4a5.8 5.8 0 00-5.8-5.8zm0 3.87H88.4a1.94 1.94 0 011.93 1.94v19.35a1.94 1.94 0 01-1.93 1.94H69.03a1.94 1.94 0 01-1.93-1.94V88.4a1.94 1.94 0 011.93-1.94zm58.88.03a27.1 27.1 0 0128.22 27.07 27.13 27.13 0 01-27.1 27.1 27.1 27.1 0 01-1.12-54.17zm-55.57 2.47L69.6 91.7l6.37 6.37-6.37 6.38 2.74 2.74 6.37-6.38 6.37 6.38 2.74-2.74-6.37-6.38 6.37-6.37-2.74-2.74-6.37 6.38zm45.08 1.37v3.87a7.47 7.47 0 015.24 2.17l.15.16a9.62 9.62 0 00-3.46 7.35v2.21a7.72 7.72 0 00-4.82 3.78l-2.92-2.92v-3.07h-3.87v3.87a1.94 1.94 0 00.57 1.37l5.24 5.24v4.2l-5.24 5.24a1.94 1.94 0 00-.57 1.37v3.87h3.87v-3.07l1.94-1.93v3.07a9.69 9.69 0 009.68 9.67h11.6a9.69 9.69 0 009.69-9.67v-3.07l1.93 1.93v3.07h3.87v-3.87a1.94 1.94 0 00-.56-1.37l-5.24-5.24v-4.2l5.24-5.24a1.94 1.94 0 00.56-1.37v-3.87h-3.87v3.07l-2.91 2.92a7.72 7.72 0 00-4.83-3.78v-2.2a9.62 9.62 0 00-3.46-7.36l.16-.16a7.47 7.47 0 015.24-2.17v-3.87a11.36 11.36 0 00-7.98 3.3l-.98.99a8.67 8.67 0 00-5.31 0l-.98-.98a11.36 11.36 0 00-7.98-3.3zM43.87 94.2h11.61v56.13a5.8 5.8 0 01-11.6 0zm85.33 3.88a5.8 5.8 0 015.64 5.8v1.94h-11.61v-1.94a5.8 5.8 0 015.97-5.8zm-7.91 11.6h5.8v23.23h-3.86a5.8 5.8 0 01-5.81-5.8v-13.55a3.87 3.87 0 013.87-3.87zm9.68 0h5.8a3.87 3.87 0 013.88 3.88v13.55a5.8 5.8 0 01-5.81 5.8h-3.87zm-61.94 7.75a5.8 5.8 0 00-5.8 5.8v19.36a5.8 5.8 0 005.8 5.8H88.4a5.8 5.8 0 005.8-5.8v-19.35a5.8 5.8 0 00-5.8-5.81zm0 3.87H88.4a1.94 1.94 0 011.93 1.94v19.35a1.94 1.94 0 01-1.93 1.94H69.03a1.94 1.94 0 01-1.93-1.94v-19.35a1.94 1.94 0 011.93-1.94zm16.05 4.44l-10.24 10.24-2.5-2.5-2.74 2.74 3.87 3.87a1.94 1.94 0 002.74 0l11.61-11.61z"/></svg>