<svg xmlns="http://www.w3.org/2000/svg" viewBox="0 -11 200 200"><path fill="#fff" d="M81.17 31.67c-.22 0-.45.01-.67.05l-9.24 1.54a3.67 3.67 0 00-2.89 4.76l1.17 3.6c.06.16.12.05-3.86 2.3a.13.13 0 01-.16-.03l-2.8-3.22a3.65 3.65 0 00-3.32-1.22l-4.64.7a3.68 3.68 0 00-3.04 4.42l1 4.56c-.03.55-.27 2.84-.99 9.86-.01.15.37.02-7 1.47a3.69 3.69 0 00-2.75 2.37l-1.77 4.93a3.67 3.67 0 00.71 3.67l4.74 5.37a3.65 3.65 0 004 1.01c.1-.03.17.03.18.12l.02.5a3.66 3.66 0 003.43 3.54c4.87.32 2.53.85 11.62-3.17.09-.04.18.03.18.13-.08 1.35-.47 3.47 1.67 4.77 3.79 2.32 1.48 1.34 11.47 4.61.04.02.07.05.08.09l1.64 5.38c.61 2.01 2.18 2.6 4.22 2.6.18 0 .05-.72 1.47 13.77a3.68 3.68 0 003.53 3.31l2.19.07c.05 0 .1.04.12.09l.94 2.85a1.77 1.77 0 103.37-1.13l-.95-2.84a3.68 3.68 0 00-3.37-2.51c-2.15-.07-2.29 0-2.3-.19l-1.34-13.65a3.66 3.66 0 00-3.85-3.3c-.14 0-.48 0-.62-.04l-1.66-5.44a3.67 3.67 0 00-2.37-2.42c-9.36-3.07-7.37-2.22-10.73-4.27a.13.13 0 01-.06-.12l.08-1.43a3.67 3.67 0 00-5.14-3.57c-4.5 2-6.44 2.89-6.98 3.07-3.03-.2-3.1-.13-3.1-.31l-.02-.51a3.68 3.68 0 00-4.92-3.33.13.13 0 01-.14-.03l-4.74-5.37a.13.13 0 01-.03-.13l1.76-4.93a.13.13 0 01.1-.08l6.9-1.36a3.65 3.65 0 002.95-3.23c1.26-12.46 1.36-9-.08-15.54-.04-.21-.03-.13 4.75-.86.05 0 .09.01.12.05l2.8 3.21a3.68 3.68 0 004.57.79l3.8-2.15a3.68 3.68 0 001.7-4.33l-1.18-3.6c-.07-.22.02-.15 9.34-1.7.17-.03-.03-.43 2.75 7.91a3.66 3.66 0 004.32 2.42l4.97-1.17c1.83-.43 2.66-2 2.8-3.03.1-.14-.13-.14 5.42 1.39 1.48.4 3.07-.16 3.96-1.41l1.34-1.89a.13.13 0 01.22.03c3.1 8.11 3 8.53 4.6 9.33l5.18 2.59a1.77 1.77 0 101.58-3.17l-5.17-2.59c-.33-.6-1.16-2.94-2.87-7.42a3.67 3.67 0 00-6.42-.82l-1.35 1.88a.13.13 0 01-.13.05L97 37.87a3.69 3.69 0 00-2.9.42 3.7 3.7 0 00-1.67 2.4c0 .09-.04.22-.13.24-5.2 1.22-5.05 1.26-5.11 1.08l-2.61-7.83a3.65 3.65 0 00-3.42-2.51zm42.81 19.57a1.77 1.77 0 00-.77 3.35c6.87 3.53 6.74 3.62 8 3.55 5.86-.28 8.35-.46 9.19-.4 10.56 8.98 10.68 9.44 12.29 9.44 2.8 0 2.88-.07 2.9.11.02.1.9 7.3.83 7.36l-3.98 3.93a1.77 1.77 0 001.25 3.03c.95 0 .93-.2 5.22-4.44a3.7 3.7 0 001.09-2.61c0-.3.05.21-.89-7.68a3.67 3.67 0 00-3.64-3.24h-2.61c-.77-.52-3.54-2.97-10.17-8.6-1.44-1.23-1.96-.9-11.66-.44-.5-.2-2.3-1.16-6.2-3.16-.27-.14-.56-.2-.85-.2zm24.67 32.13c-.45-.01-.91.14-1.27.48-5.23 4.88-5.45 4.87-5.76 6.26-2.23 10.15-2.96 13.58-3.17 14.33-.05.08-8.44 12.17-8.53 12.17-12.98 1-12.45.75-13.62 1.78-6.19 5.4-6.47 5.35-6.73 7.02-.59 3.9-.85 5.9-1 6.44l-10.75 10.9a.13.13 0 01-.18 0l-7.62-7.5c-.18-.17-.39.12 7.75-6.2a3.68 3.68 0 001.25-4l-.7-2.57a1.77 1.77 0 10-3.42.93l.74 2.7c.02.05 0 .1-.04.14l-7.75 6.02a3.67 3.67 0 00-.32 5.51l7.62 7.5a3.68 3.68 0 005.19-.04l10.75-10.9c1.36-1.38.96-2.78 1.99-8.4.43-.48 2.2-1.95 5.54-4.87.8-.15 4.02-.34 11.57-.92 1.1-.09 2.1-.66 2.73-1.57l8.45-12.13c.53-.68.36-.34 3.71-15.58.36-.42 1.88-1.78 4.72-4.43a1.77 1.77 0 00-1.15-3.07z"/></svg>