<svg xmlns="http://www.w3.org/2000/svg" viewBox="0 0 200 200"><path fill="#fff" d="M95.98 40a2.04 2.04 0 00-.94.24l-51.88 28.6a7.03 7.03 0 00.54 12.06 7.21 7.21 0 003.36.84 6.48 6.48 0 003.64-1.08l3.3-1.78V120h-3.02a6 6 0 00-5.86 7.3l6.24 28a5.95 5.95 0 005.84 4.7H158a2 2 0 002-2v-14a14.02 14.02 0 00-14-14h-6a2 2 0 01-2-2v-2.52a14.02 14.02 0 006-11.48 6.02 6.02 0 006-6v-2a5.97 5.97 0 00-2-4.44V92a10 10 0 00-10-10v-3.12l3.14 1.68a6.93 6.93 0 007.16.34 7.02 7.02 0 00.4-12.14L96.96 40.24a2.04 2.04 0 00-.98-.24zm.02 4.28l50.64 27.92a3.02 3.02 0 01-.22 5.18 3.13 3.13 0 01-3.24-.24l-46.24-24.9a1.96 1.96 0 00-1.88 0l-46.4 25A3 3 0 0144 74.72a2.96 2.96 0 011.22-2.44zm0 12l38 20.44V82h-4a6 6 0 00-5.06 2.78A5.87 5.87 0 00122 84h-2a8 8 0 00-8 8v9.56a5.97 5.97 0 00-2 4.44v2a6.02 6.02 0 006 6 14.02 14.02 0 006 11.48V128a2 2 0 01-2 2h-6a14.08 14.08 0 00-10.98 5.4l-2.38-10.7a5.95 5.95 0 00-5.84-4.7H58V77.7a2.09 2.09 0 00-.2-.86zM68 76a6 6 0 00-6 6v20a6 6 0 006 6h11.3l9.4 7.56a2 2 0 001.24.44 2 2 0 002-1.98l.04-6.02H100a6 6 0 006-6V82a6 6 0 00-6-6zm0 4h32a2 2 0 012 2v20a2 2 0 01-2 2H90a2 2 0 00-2 1.98l-.03 3.87-6.72-5.4A2 2 0 0080 104H68a2 2 0 01-2-2V82a2 2 0 012-2zm4 4a2 2 0 000 4h2a2 2 0 000-4zm8 0a2 2 0 000 4h16a2 2 0 000-4zm50 2h8a6.02 6.02 0 016 6v8a4.01 4.01 0 00-4-4h-8.2a6.14 6.14 0 01-2.78-.68l-2.08-1.1a2 2 0 00-1.84 0l-2.22 1.12A6.06 6.06 0 01120 96a4.01 4.01 0 00-4 4v-8a4.01 4.01 0 014-4h2a2 2 0 012 2 2 2 0 004 0v-2a2 2 0 012-2zm-58 4a2 2 0 000 4h2a2 2 0 000-4zm8 0a2 2 0 000 4h16a2 2 0 000-4zm-8 6a2 2 0 000 4h2a2 2 0 000-4zm8 0a2 2 0 000 4h16a2 2 0 000-4zm46 2.24l1.16.62a10.2 10.2 0 004.64 1.14h8.2v14a10 10 0 01-20 0l.16-14a10.18 10.18 0 004.54-1.08zM116 104v6a2 2 0 01-2-2v-2a2 2 0 012-2zm9.94 0a2 2 0 00-1.94 2v2a2 2 0 002 2 2 2 0 002-2v-2a2 2 0 00-2.06-2zm8 0a2 2 0 00-1.94 2v2a2 2 0 002 2 2 2 0 002-2v-2a2 2 0 00-2.06-2zm10.06 0a2 2 0 012 2v2a2 2 0 01-2 2zm-18.04 10.03a2 2 0 00-1.37 3.38 7.66 7.66 0 0010.82 0 2 2 0 00-2.82-2.82 3.66 3.66 0 01-5.18 0 2 2 0 00-1.45-.56zM50.98 124H94.8a1.97 1.97 0 011.94 1.56L103.5 156H57.2a1.97 1.97 0 01-1.94-1.56l-6.22-28a2 2 0 01.38-1.7 2.04 2.04 0 011.56-.74zm75.02 3.42a14.08 14.08 0 008 0v.58a5.98 5.98 0 005.04 5.9 12.02 12.02 0 01-18.08 0A5.98 5.98 0 00126 128zM113.98 134a10.04 10.04 0 01.02 0h2.2a15.9 15.9 0 0027.6 0h2.2a10 10 0 0110 10v12h-8v-10a2 2 0 00-4 0v10h-13.12a7.81 7.81 0 001.12-4v-2a2 2 0 00-2-2h-24.18l-1.46-6.58a10.04 10.04 0 019.62-7.42zm-38.23 0a6 6 0 00.25 12 6 6 0 006-6 6 6 0 00-6.25-6zm.25 4a2 2 0 012 2 2 2 0 11-2-2zm30.72 14H128a4.01 4.01 0 01-4 4h-16.4z"/></svg>