<svg xmlns="http://www.w3.org/2000/svg" xmlns:xlink="http://www.w3.org/1999/xlink" viewBox="0 0 583 162"><defs><linearGradient id="c" gradientUnits="userSpaceOnUse" x1="-122" y1="377.88" x2="-121" y2="377.88" gradientTransform="matrix(0 153.915 153.915 0 -57756.99 18780.9)"><stop offset="0" stop-color="#80cff5"/><stop offset=".29" stop-color="#299dc5"/><stop offset=".63" stop-color="#006d91"/><stop offset=".87" stop-color="#005070"/><stop offset="1" stop-color="#004563"/></linearGradient><clipPath id="b"><use xlink:href="#a" overflow="visible"/></clipPath><path id="a" d="M-122-217.3h841.9V378H-122z"/></defs><path d="M339.3 57.7c-1.4 0-2.6.2-3.7.6-1.1.4-2 1-2.8 1.7-.8.7-1.4 1.6-1.8 2.6-.4 1-.6 2-.6 3.1s.2 2.2.6 3.1c.4 1 1 1.8 1.8 2.5s1.7 1.3 2.8 1.7c1.1.4 2.3.6 3.6.6 1.4 0 2.6-.2 3.7-.6 1.1-.4 2.1-1 2.9-1.7.8-.7 1.4-1.5 1.8-2.5a8.16 8.16 0 000-6.2 7.6 7.6 0 00-4.6-4.3c-1.1-.4-2.3-.6-3.7-.6zm211.4 4.4a36.84 36.84 0 00-18.4 4.7c-2.7 1.5-5.1 3.3-7.4 5.4a34.47 34.47 0 00-9.4 15.3c-.9 3-1.3 6-1.3 9.3 0 3.2.4 6.3 1.3 9.2.9 2.9 2.1 5.7 3.7 8.3 1.6 2.6 3.5 4.9 5.7 7 2.2 2.1 4.7 3.9 7.4 5.4a36.84 36.84 0 0018.4 4.7c2.7 0 5.2-.3 7.6-.9 2.4-.6 4.7-1.4 6.8-2.3 2.1-1 4.1-2.1 5.9-3.4 1.8-1.3 3.4-2.7 4.8-4.2l-11.1-11.5c-.8 1.1-1.8 2-2.8 2.9a17.9 17.9 0 01-7.2 3.6 17.06 17.06 0 01-11.1-1c-2.2-1-4.1-2.3-5.8-4.1-1.6-1.7-2.9-3.8-3.9-6.1-1-2.4-1.4-4.9-1.4-7.7s.5-5.4 1.4-7.7c1-2.4 2.3-4.4 3.9-6.1 1.6-1.7 3.6-3.1 5.8-4.1a17.82 17.82 0 0114.9.3c2.5 1.2 4.6 2.9 6.3 5.2l11.1-11.5a37.8 37.8 0 00-11-7.7c-2.1-1-4.3-1.7-6.7-2.2-2.4-.5-4.9-.8-7.5-.8zM10.9 63.6v66.1h15.4v-20.3h13.3v.1c3.4 0 6.6-.6 9.5-1.7a21.4 21.4 0 0012.4-11.9c1.2-2.8 1.7-5.9 1.7-9.3 0-3.3-.6-6.4-1.8-9.2-1.2-2.8-2.8-5.2-5-7.3-2.1-2-4.6-3.6-7.6-4.8-2.9-1.1-6.1-1.7-9.6-1.7H10.9zm448.5.1v66h48.1v-15.3h-29.8v-9.8h25.1V89.4h-25.1V78.9h29.4V63.7h-47.7zM26.3 76.9h12.5c1.3 0 2.4.3 3.5.8s2.1 1.2 2.9 2.1c.8.9 1.5 1.9 1.9 3.1.5 1.2.7 2.4.7 3.8s-.2 2.6-.7 3.8c-.5 1.2-1.1 2.2-1.9 3-.8.9-1.8 1.5-2.9 2-1.1.5-2.3.8-3.5.8H26.3V76.9zm131.7.8c-4.1 0-7.9.7-11.3 2.1-3.4 1.4-6.3 3.4-8.8 5.8a27.6 27.6 0 00-5.7 8.5c-1.4 3.3-2 6.7-2 10.4s.7 7.1 2 10.4c1.4 3.3 3.3 6.1 5.7 8.6 2.5 2.4 5.4 4.4 8.8 5.8 3.4 1.4 7.1 2.1 11.2 2.1a27 27 0 006.5-.7c2-.5 3.9-1.1 5.6-1.8 1.7-.7 3.2-1.6 4.5-2.5 1.3-.9 2.4-1.8 3.3-2.6l-8.2-8.9c-.7.6-1.4 1.1-2.1 1.5-.7.5-1.5.9-2.4 1.2-.9.3-1.9.6-3 .8-1.1.2-2.5.3-4 .3a13.24 13.24 0 01-12.2-7.8h17.4v-.1c3.5 0 6.4-.4 8.7-1.2 2.3-.8 4.2-1.9 5.6-3.4 1.4-1.5 2.4-3.1 3-4.9.6-1.9.9-3.9.9-5.9 0-2.6-.6-5-1.7-7.2s-2.7-4-4.7-5.6c-2-1.6-4.5-2.8-7.4-3.6-2.9-.9-6.1-1.3-9.7-1.3zm96.1.1c-3.4 0-6.6.4-9.4 1.1-2.8.7-5.3 1.8-7.4 3.2-2.1 1.4-3.7 3.2-4.9 5.4-1.2 2.2-1.8 4.7-2 7.5h15.2c0-.6.2-1.2.7-1.8.5-.6 1.1-1.1 1.9-1.6a12.68 12.68 0 016.2-1.5c2.8 0 5.1.5 6.8 1.6 1.7 1.1 2.6 2.4 2.6 4.1v3.4c-1.6 0-3.1-.1-4.7-.1h-4.5c-3.7 0-7.1.2-10.2.7-3.1.5-5.8 1.2-8.1 2.3-2.3 1.1-4.1 2.6-5.4 4.4-1.3 1.9-1.9 4.2-1.9 7 0 3.1.5 5.8 1.4 8a14.67 14.67 0 009.5 8.6c2.1.7 4.4 1 6.8 1 1.7 0 3.3-.1 5-.3 1.7-.3 3.4-.6 5-1.2 1.6-.5 3.2-1.1 4.7-1.9 1.5-.7 2.9-1.6 4.2-2.5l1.2 4.5h12.1V94.8c0-2.7-.6-5.1-1.7-7.3-1.2-2.1-2.8-3.9-5-5.3s-4.8-2.5-7.8-3.3c-3.1-.8-6.5-1.1-10.3-1.1zM70.5 79.3v26.8c0 4.6.6 8.5 1.9 11.7 1.3 3.2 3.1 5.8 5.4 7.8 2.3 2 5 3.4 8.2 4.3 3.1.9 6.6 1.4 10.3 1.4 3.7 0 7.1-.5 10.3-1.4 3.1-.9 5.9-2.4 8.2-4.3 2.3-2 4.1-4.6 5.4-7.8 1.3-3.2 1.9-7.1 1.9-11.7V79.3H107v26.3c0 2.4-.3 4.5-.8 6.1-.5 1.6-1.2 2.9-2.1 3.9-.9 1-2 1.7-3.4 2.1-1.3.4-2.8.6-4.4.6-1.7.1-3.2-.1-4.5-.5-1.3-.4-2.5-1.1-3.4-2.1-.9-1-1.6-2.3-2.1-3.9s-.7-3.7-.7-6V79.3H70.5zm119.3 0v50.4h15v-23.4c0-4.6 1.2-8.1 3.5-10.4 2.3-2.3 5.5-3.5 9.7-3.5h6.3V79.3H217.1c-3.1 0-5.9.5-8.2 1.4-2.3.9-4.3 2-5.9 3.4l-1.2-4.8h-12zm99.7 0v50.4h15v-23.4c0-4.6 1.2-8.1 3.5-10.4 2.3-2.3 5.5-3.5 9.7-3.5h6.3V79.3H316.8c-3.1 0-5.9.5-8.2 1.4-2.3.9-4.3 2-5.9 3.4l-1.2-4.8h-12zm42.2 0v50.4h15.1V79.3h-15.1zM159.45 90.16c1.09 0 2.03.12 2.85.34 1.1.3 2 .7 2.8 1.1.7.5 1.3 1 1.6 1.6.4.6.5 1.1.5 1.7 0 1.2-.6 2.1-1.7 2.8-1.1.7-2.7 1-4.7 1h-15.2c.6-1.3 1.3-2.5 2.1-3.5.9-1.1 1.9-2 3-2.7 1.1-.8 2.3-1.3 3.6-1.7 1.3-.4 2.6-.6 4-.6.4-.03.78-.04 1.15-.04zm97.25 18.94h4c1.1 0 2.2.1 3.1.1v4.7c-.4.7-1 1.4-1.8 2.1a14.85 14.85 0 01-6.1 2.8c-1.2.3-2.4.4-3.5.4a10.57 10.57 0 01-5.6-1.1c-.7-.4-1.3-.9-1.7-1.6-.4-.7-.6-1.5-.6-2.5s.3-1.8.9-2.4c.6-.6 1.5-1.1 2.6-1.5 1.1-.4 2.4-.6 3.9-.8 1.5-.1 3.1-.2 4.8-.2z" clip-path="url(#b)" fill="#fff"/><path class="st1" d="M346.4 141.3c-.3-.3-.8-.6-1.2-.8a4.44 4.44 0 00-2.9-.1c-.4.2-.7.4-1 .6-.3.2-.5.6-.6.9-.1.3-.2.7-.2 1 0 .4.1.8.2 1.1.1.3.3.6.5.8.2.2.5.4.7.5l.9.3.9.3c.3.1.5.2.7.3.2.1.4.3.5.4.1.2.2.4.2.7 0 .5-.2.9-.5 1.2-.3.3-.8.4-1.4.4-.4 0-.7 0-.9-.1-.3-.1-.5-.2-.7-.3-.2-.1-.3-.2-.5-.3-.1-.1-.2-.1-.4-.1-.1 0-.1 0-.2.1-.1 0-.1.1-.2.2l-.5.8c.2.2.4.4.6.5.2.2.5.3.8.4l.9.3c.3.1.6.1.9.1.5 0 1-.1 1.4-.2.4-.2.8-.4 1.1-.7.3-.3.5-.6.7-1 .2-.4.2-.8.2-1.2 0-.4-.1-.8-.2-1-.1-.3-.3-.5-.5-.7-.2-.2-.5-.4-.7-.5l-.9-.3-.9-.3c-.3-.1-.5-.2-.7-.3-.2-.1-.4-.3-.5-.4-.1-.2-.2-.4-.2-.6 0-.2 0-.4.1-.5.1-.2.2-.3.3-.4.1-.1.3-.2.5-.3.2-.1.4-.1.7-.1.3 0 .6 0 .8.1.2.1.4.2.6.2.2.1.3.2.4.2.1.1.2.1.3.1.1 0 .2 0 .2-.1.1 0 .1-.1.2-.2zm-19.8 5.6c-.2.5-.4.8-.7 1.2-.3.3-.6.6-1 .7-.4.2-.9.3-1.4.3-.5 0-1-.1-1.4-.3-.4-.2-.8-.4-1-.7-.3-.3-.5-.7-.7-1.2-.2-.5-.2-1-.2-1.5 0-.6.1-1.1.2-1.5.2-.5.4-.8.7-1.2.3-.3.6-.6 1-.7.4-.2.9-.3 1.4-.3.5 0 1 .1 1.4.3.4.2.8.4 1 .7.3.3.5.7.7 1.2.2.5.2 1 .2 1.5s-.1 1-.2 1.5m1.5-3.6c-.2-.6-.6-1.2-1-1.6-.4-.4-1-.8-1.6-1.1-.6-.3-1.3-.4-2-.4s-1.4.1-2 .4c-.6.3-1.1.6-1.6 1.1-.4.4-.8 1-1 1.6-.2.6-.4 1.3-.4 2s.1 1.4.4 2c.2.6.6 1.2 1 1.6.4.4 1 .8 1.6 1 .6.2 1.3.4 2 .4s1.4-.1 2-.4c.6-.3 1.1-.6 1.6-1 .4-.4.8-1 1-1.6.2-.6.4-1.3.4-2s-.2-1.4-.4-2m-23.3 3.6c-.2.5-.4.8-.7 1.1-.3.3-.6.6-1 .7-.4.2-.9.2-1.4.2h-2.1v-7.3h2.1c.5 0 1 .1 1.4.3.4.2.8.4 1 .7.3.3.5.7.7 1.1.2.5.2 1 .2 1.5.1.7 0 1.2-.2 1.7m1.6-3.6c-.2-.6-.6-1.1-1-1.6-.4-.4-1-.8-1.6-1-.6-.2-1.3-.4-2-.4H298v9.9h3.7c.7 0 1.4-.1 2-.4.6-.2 1.1-.6 1.6-1 .4-.4.8-1 1-1.6.2-.6.4-1.3.4-2 0-.6-.1-1.3-.3-1.9m-24.1-2.9h-1.6l-3.9 9.9h1.2c.1 0 .3 0 .3-.1.1-.1.2-.2.2-.3l.8-2.2h4.3l.8 2.2c0 .1.1.2.2.3.1.1.2.1.3.1h1.2zm-2.5 6.2l1.4-3.6c.1-.1.1-.3.2-.5s.1-.4.2-.6c.1.4.2.8.3 1.1l1.4 3.6zm-15.9.3c-.2.5-.4.8-.7 1.1-.3.3-.6.6-1 .7-.4.2-.9.2-1.4.2h-2.1v-7.3h2.1c.5 0 1 .1 1.4.3.4.2.8.4 1 .7.3.3.5.7.7 1.1.2.5.2 1 .2 1.5 0 .7 0 1.2-.2 1.7m1.5-3.6c-.2-.6-.6-1.1-1-1.6-.4-.4-1-.8-1.6-1-.6-.2-1.3-.4-2-.4h-3.7v9.9h3.7c.7 0 1.4-.1 2-.4.6-.2 1.1-.6 1.6-1 .4-.4.8-1 1-1.6.2-.6.4-1.3.4-2 0-.6-.1-1.3-.4-1.9m-39.1 5.7v-3.1h3.6v-1.3h-3.6v-3h4.6v-1.3h-6.2v9.9h6.2v-1.3h-4.6zm-16-2.1c-.2.5-.4.8-.7 1.1-.3.3-.6.6-1 .7-.4.2-.9.2-1.4.2h-2.1v-7.3h2.1c.5 0 1 .1 1.4.3.4.2.8.4 1 .7.3.3.5.7.7 1.1.2.5.2 1 .2 1.5.1.7 0 1.2-.2 1.7m1.6-3.6c-.2-.6-.6-1.1-1-1.6-.4-.4-1-.8-1.6-1-.6-.2-1.3-.4-2-.4h-3.7v9.9h3.7c.7 0 1.4-.1 2-.4.6-.2 1.1-.6 1.6-1 .4-.4.8-1 1-1.6.2-.6.4-1.3.4-2-.1-.6-.2-1.3-.4-1.9m-37.5-2.9h-1.6l-3.9 9.9h1.2c.1 0 .3 0 .3-.1.1-.1.2-.2.2-.3l.8-2.2h4.3l.8 2.2c0 .1.1.2.2.3.1.1.2.1.3.1h1.2zm-2.5 6.2l1.4-3.6c0-.1.1-.3.2-.5s.1-.4.2-.6c.1.4.2.8.3 1.1l1.4 3.6zm-14.6 1.6c-.1-.1-.1-.1-.2-.1s-.2 0-.3.1c-.2.1-.3.3-.5.4-.2.1-.3.2-.5.3-.2.1-.4.1-.6.1h-.7c-.4 0-.9-.1-1.3-.2-.4-.2-.7-.4-1-.7-.3-.3-.5-.7-.7-1.2-.2-.5-.2-1-.2-1.6 0-.6.1-1.1.2-1.5.2-.5.4-.8.7-1.2.3-.3.6-.6 1-.7.4-.2.8-.2 1.3-.2.4 0 .7 0 1 .1.3.1.5.2.7.3.2.1.3.2.4.3.1.1.2.1.3.1.1 0 .2 0 .2-.1.1 0 .1-.1.1-.1l.5-.7c-.4-.4-.9-.7-1.4-.9-.5-.2-1.2-.3-1.9-.3s-1.4.1-2 .4a4.35 4.35 0 00-2.5 2.6c-.2.6-.4 1.3-.4 2s.1 1.3.3 1.9c.2.6.5 1.1.9 1.6.4.4.8.8 1.4 1.1.5.3 1.1.4 1.8.5l-.3.9c.3.1.6.1.8.2.2.1.3.2.3.3 0 .1 0 .2-.1.2-.1.1-.2.1-.4.1h-.5-.1c-.1 0-.2 0-.2.1l-.1.5c.2.1.3.1.5.1h.5c.2 0 .4 0 .6-.1.2 0 .4-.1.5-.2l.3-.3c.1-.1.1-.3.1-.4 0-.2-.1-.5-.3-.6-.2-.2-.5-.3-.9-.4l.1-.4c.7 0 1.3-.2 1.9-.4.5-.3 1-.6 1.3-1.1zm-21.5-7.8V147.7l-5.4-7c0-.1-.1-.1-.1-.1l-.1-.1h-.1-1.1v9.9h1.4v-6.5-.4-.4l5.4 7 .2.2c.1 0 .2.1.3.1h.8v-9.9h-1.3zm-22.5 0h-1.6l-3.9 9.9h1.2c.1 0 .3 0 .3-.1.1-.1.2-.2.2-.3l.8-2.2h4.3l.8 2.2c0 .1.1.2.2.3.1.1.2.1.3.1h1.2zm-2.5 6.2l1.4-3.6c.1-.1.1-.3.2-.5s.1-.4.2-.6c.1.4.2.8.3 1.1l1.4 3.6zm-16.4-.1c-.1-.2-.3-.4-.5-.5a3 3 0 001-.4c.3-.2.5-.4.7-.6.2-.2.3-.5.4-.8.1-.3.2-.6.2-1s-.1-.8-.2-1.1c-.1-.3-.4-.6-.7-.9-.3-.2-.7-.4-1.2-.6-.5-.1-1-.2-1.7-.2h-2.9v9.9h1.6v-4h.9c.2 0 .3 0 .4.1.1.1.2.1.3.2l2.3 3.3c.1.2.3.3.6.3H97zm-3.3-1.4v-3.5h1.3c.7 0 1.3.1 1.6.4.4.3.5.7.5 1.2 0 .3 0 .5-.1.7-.1.2-.2.4-.4.6-.2.2-.4.3-.7.4-.3.1-.6.1-1 .1h-1.2zm-19.5 3.7c-.3-.1-.6-.3-.8-.5-.2-.2-.4-.5-.5-.8-.1-.3-.2-.7-.2-1.1v-6h-1.6v6c0 .6.1 1.1.3 1.6.2.5.5.9.8 1.3.3.4.8.6 1.3.8.5.2 1.1.3 1.7.3.6 0 1.2-.1 1.7-.3.5-.2.9-.5 1.3-.8.3-.4.6-.8.8-1.3.2-.5.3-1 .3-1.6v-6H75v6c0 .4-.1.8-.2 1.1-.1.3-.3.6-.5.8-.2.2-.5.4-.8.5-.3.1-.6.2-1 .2-.3 0-.6-.1-.9-.2m-18.7-3.4v.9c0 .1 0 .2.1.2.1.1.1.1.2.1h1.4v2c-.3.2-.6.3-.9.4-.3.1-.7.1-1.1.1-.5 0-1-.1-1.5-.3-.4-.2-.8-.4-1.1-.7-.3-.3-.6-.7-.7-1.2-.2-.5-.3-1-.3-1.6 0-.6.1-1.1.2-1.5.2-.5.4-.8.7-1.2.3-.3.7-.6 1.1-.7.4-.2.9-.3 1.4-.3.3 0 .6 0 .9.1.3.1.5.1.7.2.2.1.4.2.5.2.1.1.3.2.4.2.1.1.3.1.4.1.1 0 .2-.1.3-.2l.5-.7c-.2-.2-.4-.4-.7-.5-.2-.2-.5-.3-.8-.4-.3-.1-.6-.2-1-.3-.3-.1-.7-.1-1.1-.1-.8 0-1.5.1-2.1.4-.6.2-1.2.6-1.6 1-.4.4-.8 1-1 1.6-.2.6-.4 1.3-.4 2.1 0 .7.1 1.4.4 2 .2.6.6 1.2 1.1 1.6.5.4 1 .8 1.7 1 .7.2 1.4.4 2.2.4 1.3 0 2.5-.4 3.4-1.1v-3.9h-3.3zM31.3 149v-3.1h3.6v-1.3h-3.6v-3h4.6v-1.3h-6.2v9.9h6.2v-1.3h-4.6zm-14.2-7.7c-.3-.3-.8-.6-1.2-.8a4.44 4.44 0 00-2.9-.1c-.4.2-.7.4-1 .6-.3.3-.5.6-.6.9-.1.3-.2.7-.2 1 0 .4.1.8.2 1.1.1.3.3.6.5.8.2.2.5.4.7.5l.9.3.9.3c.3.1.5.2.7.3.2.1.4.3.5.4.1.2.2.4.2.7 0 .5-.2.9-.5 1.2-.3.3-.8.4-1.4.4-.4 0-.7 0-.9-.1-.2-.1-.5-.2-.7-.3-.2-.1-.3-.2-.5-.3-.1-.1-.2-.1-.4-.1-.1 0-.1 0-.2.1-.1 0-.1.1-.2.2l-.5.8c.2.2.4.4.6.5.2.2.5.3.8.4l.9.3c.3.1.6.1.9.1.5 0 1-.1 1.4-.2.4-.2.8-.4 1.1-.7.3-.3.5-.6.7-1 .2-.4.2-.8.2-1.2 0-.4-.1-.8-.2-1-.1-.3-.3-.5-.5-.7-.2-.2-.5-.4-.7-.5l-.9-.3-.9-.3c-.3-.1-.5-.2-.7-.3-.2-.1-.4-.3-.5-.4-.1-.2-.2-.4-.2-.6 0-.2 0-.4.1-.5.1-.2.2-.3.3-.4.1-.1.3-.2.5-.3.2-.1.5-.1.7-.1.3 0 .6 0 .8.1.2.1.4.2.6.2.2.1.3.2.4.2.1.1.2.1.3.1.1 0 .2 0 .2-.1.1 0 .1-.1.2-.2z" clip-path="url(#b)" fill="#c6c6c6"/><path class="st2" d="M384.7 97.7V125h38.1V89.3H358V54.2c-.1-14.1 5.6-26.5 14.5-34.3 8.9-7.9 20.1-11.4 31.1-11.4 11.1 0 22.4 3.6 31.4 11.5 9 7.8 14.9 20.1 14.8 34.3h-27c-.3-13.4-8.4-18-19.2-18.8-10.5.8-18.1 4.8-18.6 18.8v8.1h64.8V152h-92.1V97.7z" clip-path="url(#b)" fill="url(#c)"/></svg>