<?xml version="1.0" encoding="utf-8"?>
<!-- Generator: Adobe Illustrator 19.0.0, SVG Export Plug-In . SVG Version: 6.00 Build 0)  -->
<svg version="1.1" id="Camada_1" xmlns="http://www.w3.org/2000/svg" xmlns:xlink="http://www.w3.org/1999/xlink" x="0px" y="0px"
	 viewBox="0 0 583 162" style="enable-background:new 0 0 583 162;" xml:space="preserve">
<style type="text/css">
	.st0{clip-path:url(#SVGID_2_);fill:#FFFFFF;}
	.st1{clip-path:url(#SVGID_2_);fill:#C6C6C6;}
	.st2{clip-path:url(#SVGID_2_);fill:url(#SVGID_3_);}
</style>
<g>
	<defs>
		<rect id="SVGID_1_" x="-122" y="-217.3" width="841.9" height="595.3"/>
	</defs>
	<clipPath id="SVGID_2_">
		<use xlink:href="#SVGID_1_"  style="overflow:visible;"/>
	</clipPath>
	<path class="st0" d="M331,68.8c0.4,1,1,1.8,1.8,2.5c0.8,0.7,1.7,1.3,2.8,1.7c1.1,0.4,2.3,0.6,3.6,0.6c1.4,0,2.6-0.2,3.7-0.6
		c1.1-0.4,2.1-1,2.9-1.7c0.8-0.7,1.4-1.5,1.8-2.5c0.4-1,0.6-2,0.6-3.1c0-1.1-0.2-2.1-0.6-3.1c-0.4-1-1-1.8-1.8-2.6s-1.7-1.3-2.8-1.7
		c-1.1-0.4-2.3-0.6-3.7-0.6c-1.4,0-2.6,0.2-3.7,0.6c-1.1,0.4-2,1-2.8,1.7c-0.8,0.7-1.4,1.6-1.8,2.6c-0.4,1-0.6,2-0.6,3.1
		S330.6,67.9,331,68.8 M331.7,129.7h15.1V79.3h-15.1V129.7z M323.9,79.3h-7.1c-3.1,0-5.9,0.5-8.2,1.4c-2.3,0.9-4.3,2-5.9,3.4
		l-1.2-4.8h-12v50.4h15v-23.4c0-4.6,1.2-8.1,3.5-10.4c2.3-2.3,5.5-3.5,9.7-3.5l6.3,0V79.3z M249.3,119c-1-0.2-1.8-0.5-2.5-0.9
		s-1.3-0.9-1.7-1.6c-0.4-0.7-0.6-1.5-0.6-2.5c0-1,0.3-1.8,0.9-2.4c0.6-0.6,1.5-1.1,2.6-1.5c1.1-0.4,2.4-0.6,3.9-0.8
		c1.5-0.1,3.1-0.2,4.8-0.2c1.6,0,2.9,0,4,0c1.1,0,2.2,0.1,3.1,0.1v4.7c-0.4,0.7-1,1.4-1.8,2.1c-0.8,0.6-1.7,1.2-2.8,1.7
		c-1,0.5-2.1,0.8-3.3,1.1c-1.2,0.3-2.4,0.4-3.5,0.4C251.3,119.3,250.3,119.2,249.3,119 M266.8,129.7h12.1V94.8
		c0-2.7-0.6-5.1-1.7-7.3c-1.2-2.1-2.8-3.9-5-5.3c-2.2-1.4-4.8-2.5-7.8-3.3c-3.1-0.8-6.5-1.1-10.3-1.1c-3.4,0-6.6,0.4-9.4,1.1
		c-2.8,0.7-5.3,1.8-7.4,3.2c-2.1,1.4-3.7,3.2-4.9,5.4c-1.2,2.2-1.8,4.7-2,7.5l15.2,0c0-0.6,0.2-1.2,0.7-1.8c0.5-0.6,1.1-1.1,1.9-1.6
		c0.8-0.4,1.7-0.8,2.8-1.1c1.1-0.3,2.2-0.4,3.4-0.4c2.8,0,5.1,0.5,6.8,1.6c1.7,1.1,2.6,2.4,2.6,4.1v3.4c-1.6,0-3.1-0.1-4.7-0.1
		c-1.6,0-3.1,0-4.5,0c-3.7,0-7.1,0.2-10.2,0.7c-3.1,0.5-5.8,1.2-8.1,2.3c-2.3,1.1-4.1,2.6-5.4,4.4c-1.3,1.9-1.9,4.2-1.9,7
		c0,3.1,0.5,5.8,1.4,8c1,2.2,2.2,4,3.9,5.5c1.6,1.4,3.5,2.5,5.6,3.1c2.1,0.7,4.4,1,6.8,1c1.7,0,3.3-0.1,5-0.3c1.7-0.3,3.4-0.6,5-1.2
		c1.6-0.5,3.2-1.1,4.7-1.9c1.5-0.7,2.9-1.6,4.2-2.5L266.8,129.7z M224.2,79.3h-7.1c-3.1,0-5.9,0.5-8.2,1.4c-2.3,0.9-4.3,2-5.9,3.4
		l-1.2-4.8h-12v50.4h15v-23.4c0-4.6,1.2-8.1,3.5-10.4c2.3-2.3,5.5-3.5,9.7-3.5l6.3,0V79.3z M162.3,90.5c1.1,0.3,2,0.7,2.8,1.1
		c0.7,0.5,1.3,1,1.6,1.6c0.4,0.6,0.5,1.1,0.5,1.7c0,1.2-0.6,2.1-1.7,2.8c-1.1,0.7-2.7,1-4.7,1h-15.2c0.6-1.3,1.3-2.5,2.1-3.5
		c0.9-1.1,1.9-2,3-2.7c1.1-0.8,2.3-1.3,3.6-1.7c1.3-0.4,2.6-0.6,4-0.6C159.9,90.1,161.2,90.2,162.3,90.5 M163.3,110.8
		c3.5,0,6.4-0.4,8.7-1.2c2.3-0.8,4.2-1.9,5.6-3.4s2.4-3.1,3-4.9c0.6-1.9,0.9-3.9,0.9-5.9c0-2.6-0.6-5-1.7-7.2
		c-1.1-2.2-2.7-4-4.7-5.6c-2-1.6-4.5-2.8-7.4-3.6c-2.9-0.9-6.1-1.3-9.7-1.3c-4.1,0-7.9,0.7-11.3,2.1c-3.4,1.4-6.3,3.4-8.8,5.8
		c-2.4,2.4-4.3,5.3-5.7,8.5c-1.4,3.3-2,6.7-2,10.4c0,3.7,0.7,7.1,2,10.4c1.4,3.3,3.3,6.1,5.7,8.6c2.5,2.4,5.4,4.4,8.8,5.8
		c3.4,1.4,7.1,2.1,11.2,2.1c2.3,0,4.5-0.2,6.5-0.7c2-0.5,3.9-1.1,5.6-1.8c1.7-0.7,3.2-1.6,4.5-2.5c1.3-0.9,2.4-1.8,3.3-2.6l-8.2-8.9
		c-0.7,0.6-1.4,1.1-2.1,1.5c-0.7,0.5-1.5,0.9-2.4,1.2s-1.9,0.6-3,0.8c-1.1,0.2-2.5,0.3-4,0.3c-2.7,0-5.1-0.7-7.3-2.1
		c-2.2-1.4-3.8-3.3-4.9-5.7H163.3z M91.8,117.8c-1.3-0.4-2.5-1.1-3.4-2.1c-0.9-1-1.6-2.3-2.1-3.9c-0.5-1.6-0.7-3.7-0.7-6V79.3H70.5
		v26.8c0,4.6,0.6,8.5,1.9,11.7c1.3,3.2,3.1,5.8,5.4,7.8c2.3,2,5,3.4,8.2,4.3c3.1,0.9,6.6,1.4,10.3,1.4c3.7,0,7.1-0.5,10.3-1.4
		c3.1-0.9,5.9-2.4,8.2-4.3c2.3-2,4.1-4.6,5.4-7.8c1.3-3.2,1.9-7.1,1.9-11.7V79.3h-15.1v26.3c0,2.4-0.3,4.5-0.8,6.1
		c-0.5,1.6-1.2,2.9-2.1,3.9c-0.9,1-2,1.7-3.4,2.1c-1.3,0.4-2.8,0.6-4.4,0.6C94.6,118.4,93.1,118.2,91.8,117.8 M26.3,96.2V76.9h12.5
		c1.3,0,2.4,0.3,3.5,0.8c1.1,0.5,2.1,1.2,2.9,2.1c0.8,0.9,1.5,1.9,1.9,3.1c0.5,1.2,0.7,2.4,0.7,3.8c0,1.4-0.2,2.6-0.7,3.8
		c-0.5,1.2-1.1,2.2-1.9,3c-0.8,0.9-1.8,1.5-2.9,2c-1.1,0.5-2.3,0.8-3.5,0.8H26.3z M39.6,109.5c3.4,0,6.6-0.6,9.5-1.7
		c2.9-1.1,5.4-2.7,7.5-4.7c2.1-2,3.7-4.4,4.9-7.2c1.2-2.8,1.7-5.9,1.7-9.3c0-3.3-0.6-6.4-1.8-9.2c-1.2-2.8-2.8-5.2-5-7.3
		c-2.1-2-4.6-3.6-7.6-4.8c-2.9-1.1-6.1-1.7-9.6-1.7H10.9v66.1h15.4v-20.3H39.6z"/>
	<path class="st0" d="M564.7,109.1c-0.8,1.1-1.8,2-2.8,2.9c-1.1,0.9-2.2,1.6-3.4,2.2c-1.2,0.6-2.5,1.1-3.8,1.4
		c-1.3,0.3-2.7,0.5-4,0.5c-2.5,0-4.9-0.5-7.1-1.5c-2.2-1-4.1-2.3-5.8-4.1c-1.6-1.7-2.9-3.8-3.9-6.1c-1-2.4-1.4-4.9-1.4-7.7
		c0-2.8,0.5-5.4,1.4-7.7c1-2.4,2.3-4.4,3.9-6.1c1.6-1.7,3.6-3.1,5.8-4.1c2.2-1,4.6-1.5,7.1-1.5c2.7,0,5.3,0.6,7.8,1.8
		c2.5,1.2,4.6,2.9,6.3,5.2l11.1-11.5c-1.6-1.6-3.3-3-5.1-4.3c-1.8-1.3-3.8-2.4-5.9-3.4c-2.1-1-4.3-1.7-6.7-2.2
		c-2.4-0.5-4.9-0.8-7.5-0.8c-3.4,0-6.6,0.4-9.7,1.2c-3.1,0.8-6,2-8.7,3.5c-2.7,1.5-5.1,3.3-7.4,5.4c-2.2,2.1-4.1,4.4-5.7,7
		c-1.6,2.6-2.8,5.3-3.7,8.3c-0.9,3-1.3,6-1.3,9.3c0,3.2,0.4,6.3,1.3,9.2c0.9,2.9,2.1,5.7,3.7,8.3c1.6,2.6,3.5,4.9,5.7,7
		c2.2,2.1,4.7,3.9,7.4,5.4c2.7,1.5,5.6,2.7,8.7,3.5c3.1,0.8,6.3,1.2,9.7,1.2c2.7,0,5.2-0.3,7.6-0.9c2.4-0.6,4.7-1.4,6.8-2.3
		c2.1-1,4.1-2.1,5.9-3.4c1.8-1.3,3.4-2.7,4.8-4.2L564.7,109.1z M459.4,129.7h48.1v-15.3h-29.8v-9.8h25.1V89.4h-25.1V78.9h29.4V63.7
		h-47.7V129.7z"/>
	<path class="st1" d="M346.4,141.3c-0.3-0.3-0.8-0.6-1.2-0.8c-0.5-0.2-1-0.3-1.6-0.3c-0.5,0-1,0.1-1.3,0.2c-0.4,0.2-0.7,0.4-1,0.6
		s-0.5,0.6-0.6,0.9c-0.1,0.3-0.2,0.7-0.2,1c0,0.4,0.1,0.8,0.2,1.1s0.3,0.6,0.5,0.8c0.2,0.2,0.5,0.4,0.7,0.5c0.3,0.1,0.6,0.2,0.9,0.3
		c0.3,0.1,0.6,0.2,0.9,0.3c0.3,0.1,0.5,0.2,0.7,0.3c0.2,0.1,0.4,0.3,0.5,0.4c0.1,0.2,0.2,0.4,0.2,0.7c0,0.5-0.2,0.9-0.5,1.2
		c-0.3,0.3-0.8,0.4-1.4,0.4c-0.4,0-0.7,0-0.9-0.1c-0.3-0.1-0.5-0.2-0.7-0.3c-0.2-0.1-0.3-0.2-0.5-0.3c-0.1-0.1-0.2-0.1-0.4-0.1
		c-0.1,0-0.1,0-0.2,0.1c-0.1,0-0.1,0.1-0.2,0.2l-0.5,0.8c0.2,0.2,0.4,0.4,0.6,0.5c0.2,0.2,0.5,0.3,0.8,0.4c0.3,0.1,0.6,0.2,0.9,0.3
		c0.3,0.1,0.6,0.1,0.9,0.1c0.5,0,1-0.1,1.4-0.2c0.4-0.2,0.8-0.4,1.1-0.7c0.3-0.3,0.5-0.6,0.7-1c0.2-0.4,0.2-0.8,0.2-1.2
		c0-0.4-0.1-0.8-0.2-1c-0.1-0.3-0.3-0.5-0.5-0.7c-0.2-0.2-0.5-0.4-0.7-0.5c-0.3-0.1-0.6-0.2-0.9-0.3c-0.3-0.1-0.6-0.2-0.9-0.3
		c-0.3-0.1-0.5-0.2-0.7-0.3c-0.2-0.1-0.4-0.3-0.5-0.4c-0.1-0.2-0.2-0.4-0.2-0.6c0-0.2,0-0.4,0.1-0.5c0.1-0.2,0.2-0.3,0.3-0.4
		c0.1-0.1,0.3-0.2,0.5-0.3c0.2-0.1,0.4-0.1,0.7-0.1c0.3,0,0.6,0,0.8,0.1c0.2,0.1,0.4,0.2,0.6,0.2c0.2,0.1,0.3,0.2,0.4,0.2
		c0.1,0.1,0.2,0.1,0.3,0.1c0.1,0,0.2,0,0.2-0.1c0.1,0,0.1-0.1,0.2-0.2L346.4,141.3z M326.6,146.9c-0.2,0.5-0.4,0.8-0.7,1.2
		c-0.3,0.3-0.6,0.6-1,0.7c-0.4,0.2-0.9,0.3-1.4,0.3c-0.5,0-1-0.1-1.4-0.3c-0.4-0.2-0.8-0.4-1-0.7c-0.3-0.3-0.5-0.7-0.7-1.2
		c-0.2-0.5-0.2-1-0.2-1.5c0-0.6,0.1-1.1,0.2-1.5c0.2-0.5,0.4-0.8,0.7-1.2c0.3-0.3,0.6-0.6,1-0.7c0.4-0.2,0.9-0.3,1.4-0.3
		c0.5,0,1,0.1,1.4,0.3c0.4,0.2,0.8,0.4,1,0.7c0.3,0.3,0.5,0.7,0.7,1.2c0.2,0.5,0.2,1,0.2,1.5C326.8,145.9,326.7,146.4,326.6,146.9
		 M328.1,143.3c-0.2-0.6-0.6-1.2-1-1.6c-0.4-0.4-1-0.8-1.6-1.1c-0.6-0.3-1.3-0.4-2-0.4c-0.7,0-1.4,0.1-2,0.4
		c-0.6,0.3-1.1,0.6-1.6,1.1c-0.4,0.4-0.8,1-1,1.6c-0.2,0.6-0.4,1.3-0.4,2c0,0.7,0.1,1.4,0.4,2c0.2,0.6,0.6,1.2,1,1.6
		c0.4,0.4,1,0.8,1.6,1s1.3,0.4,2,0.4c0.7,0,1.4-0.1,2-0.4c0.6-0.3,1.1-0.6,1.6-1c0.4-0.4,0.8-1,1-1.6c0.2-0.6,0.4-1.3,0.4-2
		C328.5,144.6,328.3,143.9,328.1,143.3 M304.8,146.9c-0.2,0.5-0.4,0.8-0.7,1.1c-0.3,0.3-0.6,0.6-1,0.7c-0.4,0.2-0.9,0.2-1.4,0.2
		h-2.1v-7.3h2.1c0.5,0,1,0.1,1.4,0.3c0.4,0.2,0.8,0.4,1,0.7c0.3,0.3,0.5,0.7,0.7,1.1c0.2,0.5,0.2,1,0.2,1.5
		C305.1,145.9,305,146.4,304.8,146.9 M306.4,143.3c-0.2-0.6-0.6-1.1-1-1.6c-0.4-0.4-1-0.8-1.6-1c-0.6-0.2-1.3-0.4-2-0.4H298v9.9h3.7
		c0.7,0,1.4-0.1,2-0.4c0.6-0.2,1.1-0.6,1.6-1c0.4-0.4,0.8-1,1-1.6c0.2-0.6,0.4-1.3,0.4-2C306.7,144.6,306.6,143.9,306.4,143.3
		 M282.3,140.4h-1.6l-3.9,9.9h1.2c0.1,0,0.3,0,0.3-0.1c0.1-0.1,0.2-0.2,0.2-0.3l0.8-2.2h4.3l0.8,2.2c0,0.1,0.1,0.2,0.2,0.3
		c0.1,0.1,0.2,0.1,0.3,0.1h1.2L282.3,140.4z M279.8,146.6l1.4-3.6c0.1-0.1,0.1-0.3,0.2-0.5c0.1-0.2,0.1-0.4,0.2-0.6
		c0.1,0.4,0.2,0.8,0.3,1.1l1.4,3.6H279.8z M263.9,146.9c-0.2,0.5-0.4,0.8-0.7,1.1c-0.3,0.3-0.6,0.6-1,0.7c-0.4,0.2-0.9,0.2-1.4,0.2
		h-2.1v-7.3h2.1c0.5,0,1,0.1,1.4,0.3c0.4,0.2,0.8,0.4,1,0.7c0.3,0.3,0.5,0.7,0.7,1.1c0.2,0.5,0.2,1,0.2,1.5
		C264.1,145.9,264.1,146.4,263.9,146.9 M265.4,143.3c-0.2-0.6-0.6-1.1-1-1.6c-0.4-0.4-1-0.8-1.6-1c-0.6-0.2-1.3-0.4-2-0.4h-3.7v9.9
		h3.7c0.7,0,1.4-0.1,2-0.4c0.6-0.2,1.1-0.6,1.6-1c0.4-0.4,0.8-1,1-1.6c0.2-0.6,0.4-1.3,0.4-2C265.8,144.6,265.7,143.9,265.4,143.3
		 M226.3,149v-3.1h3.6v-1.3h-3.6v-3h4.6v-1.3h-6.2v9.9h6.2l0-1.3H226.3z M210.3,146.9c-0.2,0.5-0.4,0.8-0.7,1.1
		c-0.3,0.3-0.6,0.6-1,0.7c-0.4,0.2-0.9,0.2-1.4,0.2h-2.1v-7.3h2.1c0.5,0,1,0.1,1.4,0.3c0.4,0.2,0.8,0.4,1,0.7
		c0.3,0.3,0.5,0.7,0.7,1.1c0.2,0.5,0.2,1,0.2,1.5C210.6,145.9,210.5,146.4,210.3,146.9 M211.9,143.3c-0.2-0.6-0.6-1.1-1-1.6
		c-0.4-0.4-1-0.8-1.6-1c-0.6-0.2-1.3-0.4-2-0.4h-3.7v9.9h3.7c0.7,0,1.4-0.1,2-0.4c0.6-0.2,1.1-0.6,1.6-1c0.4-0.4,0.8-1,1-1.6
		c0.2-0.6,0.4-1.3,0.4-2C212.2,144.6,212.1,143.9,211.9,143.3 M174.4,140.4h-1.6l-3.9,9.9h1.2c0.1,0,0.3,0,0.3-0.1
		c0.1-0.1,0.2-0.2,0.2-0.3l0.8-2.2h4.3l0.8,2.2c0,0.1,0.1,0.2,0.2,0.3s0.2,0.1,0.3,0.1h1.2L174.4,140.4z M171.9,146.6l1.4-3.6
		c0-0.1,0.1-0.3,0.2-0.5c0.1-0.2,0.1-0.4,0.2-0.6c0.1,0.4,0.2,0.8,0.3,1.1l1.4,3.6H171.9z M157.3,148.2c-0.1-0.1-0.1-0.1-0.2-0.1
		c-0.1,0-0.2,0-0.3,0.1c-0.2,0.1-0.3,0.3-0.5,0.4c-0.2,0.1-0.3,0.2-0.5,0.3c-0.2,0.1-0.4,0.1-0.6,0.1c-0.2,0-0.5,0-0.7,0
		c-0.4,0-0.9-0.1-1.3-0.2c-0.4-0.2-0.7-0.4-1-0.7c-0.3-0.3-0.5-0.7-0.7-1.2c-0.2-0.5-0.2-1-0.2-1.6c0-0.6,0.1-1.1,0.2-1.5
		c0.2-0.5,0.4-0.8,0.7-1.2c0.3-0.3,0.6-0.6,1-0.7c0.4-0.2,0.8-0.2,1.3-0.2c0.4,0,0.7,0,1,0.1c0.3,0.1,0.5,0.2,0.7,0.3
		c0.2,0.1,0.3,0.2,0.4,0.3c0.1,0.1,0.2,0.1,0.3,0.1c0.1,0,0.2,0,0.2-0.1c0.1,0,0.1-0.1,0.1-0.1l0.5-0.7c-0.4-0.4-0.9-0.7-1.4-0.9
		c-0.5-0.2-1.2-0.3-1.9-0.3c-0.7,0-1.4,0.1-2,0.4c-0.6,0.2-1.1,0.6-1.5,1c-0.4,0.4-0.8,1-1,1.6c-0.2,0.6-0.4,1.3-0.4,2
		c0,0.7,0.1,1.3,0.3,1.9c0.2,0.6,0.5,1.1,0.9,1.6c0.4,0.4,0.8,0.8,1.4,1.1c0.5,0.3,1.1,0.4,1.8,0.5l-0.3,0.9
		c0.3,0.1,0.6,0.1,0.8,0.2c0.2,0.1,0.3,0.2,0.3,0.3c0,0.1,0,0.2-0.1,0.2c-0.1,0.1-0.2,0.1-0.4,0.1c-0.1,0-0.2,0-0.2,0
		c-0.1,0-0.1,0-0.2,0s-0.1,0-0.1,0c0,0-0.1,0-0.1,0c-0.1,0-0.2,0-0.2,0.1l-0.1,0.5c0.2,0.1,0.3,0.1,0.5,0.1c0.2,0,0.3,0,0.5,0
		c0.2,0,0.4,0,0.6-0.1c0.2,0,0.4-0.1,0.5-0.2c0.1-0.1,0.2-0.2,0.3-0.3c0.1-0.1,0.1-0.3,0.1-0.4c0-0.2-0.1-0.5-0.3-0.6
		c-0.2-0.2-0.5-0.3-0.9-0.4l0.1-0.4c0.7,0,1.3-0.2,1.9-0.4c0.5-0.3,1-0.6,1.3-1.1L157.3,148.2z M135.8,140.4v6.5c0,0.1,0,0.2,0,0.4
		c0,0.1,0,0.3,0,0.4l-5.4-7c0-0.1-0.1-0.1-0.1-0.1c0,0-0.1-0.1-0.1-0.1c0,0-0.1,0-0.1,0s-0.1,0-0.2,0H129v9.9h1.4v-6.5
		c0-0.1,0-0.2,0-0.4c0-0.1,0-0.3,0-0.4l5.4,7c0.1,0.1,0.2,0.2,0.2,0.2c0.1,0,0.2,0.1,0.3,0.1h0.8v-9.9H135.8z M113.3,140.4h-1.6
		l-3.9,9.9h1.2c0.1,0,0.3,0,0.3-0.1c0.1-0.1,0.2-0.2,0.2-0.3l0.8-2.2h4.3l0.8,2.2c0,0.1,0.1,0.2,0.2,0.3c0.1,0.1,0.2,0.1,0.3,0.1
		h1.2L113.3,140.4z M110.8,146.6l1.4-3.6c0.1-0.1,0.1-0.3,0.2-0.5c0.1-0.2,0.1-0.4,0.2-0.6c0.1,0.4,0.2,0.8,0.3,1.1l1.4,3.6H110.8z
		 M94.4,146.5c-0.1-0.2-0.3-0.4-0.5-0.5c0.4-0.1,0.7-0.2,1-0.4c0.3-0.2,0.5-0.4,0.7-0.6c0.2-0.2,0.3-0.5,0.4-0.8
		c0.1-0.3,0.2-0.6,0.2-1c0-0.4-0.1-0.8-0.2-1.1c-0.1-0.3-0.4-0.6-0.7-0.9c-0.3-0.2-0.7-0.4-1.2-0.6c-0.5-0.1-1-0.2-1.7-0.2h-2.9v9.9
		h1.6v-4H92c0.2,0,0.3,0,0.4,0.1c0.1,0.1,0.2,0.1,0.3,0.2l2.3,3.3c0.1,0.2,0.3,0.3,0.6,0.3H97L94.4,146.5z M91.1,145.1v-3.5h1.3
		c0.7,0,1.3,0.1,1.6,0.4c0.4,0.3,0.5,0.7,0.5,1.2c0,0.3,0,0.5-0.1,0.7c-0.1,0.2-0.2,0.4-0.4,0.6c-0.2,0.2-0.4,0.3-0.7,0.4
		c-0.3,0.1-0.6,0.1-1,0.1H91.1z M71.6,148.8c-0.3-0.1-0.6-0.3-0.8-0.5c-0.2-0.2-0.4-0.5-0.5-0.8s-0.2-0.7-0.2-1.1v-6h-1.6v6
		c0,0.6,0.1,1.1,0.3,1.6c0.2,0.5,0.5,0.9,0.8,1.3c0.3,0.4,0.8,0.6,1.3,0.8c0.5,0.2,1.1,0.3,1.7,0.3c0.6,0,1.2-0.1,1.7-0.3
		c0.5-0.2,0.9-0.5,1.3-0.8c0.3-0.4,0.6-0.8,0.8-1.3c0.2-0.5,0.3-1,0.3-1.6v-6H75v6c0,0.4-0.1,0.8-0.2,1.1c-0.1,0.3-0.3,0.6-0.5,0.8
		c-0.2,0.2-0.5,0.4-0.8,0.5c-0.3,0.1-0.6,0.2-1,0.2C72.2,149,71.9,148.9,71.6,148.8 M52.9,145.4v0.9c0,0.1,0,0.2,0.1,0.2
		c0.1,0.1,0.1,0.1,0.2,0.1h1.4v2c-0.3,0.2-0.6,0.3-0.9,0.4c-0.3,0.1-0.7,0.1-1.1,0.1c-0.5,0-1-0.1-1.5-0.3c-0.4-0.2-0.8-0.4-1.1-0.7
		c-0.3-0.3-0.6-0.7-0.7-1.2c-0.2-0.5-0.3-1-0.3-1.6c0-0.6,0.1-1.1,0.2-1.5c0.2-0.5,0.4-0.8,0.7-1.2c0.3-0.3,0.7-0.6,1.1-0.7
		c0.4-0.2,0.9-0.3,1.4-0.3c0.3,0,0.6,0,0.9,0.1s0.5,0.1,0.7,0.2c0.2,0.1,0.4,0.2,0.5,0.2c0.1,0.1,0.3,0.2,0.4,0.2
		c0.1,0.1,0.3,0.1,0.4,0.1c0.1,0,0.2-0.1,0.3-0.2l0.5-0.7c-0.2-0.2-0.4-0.4-0.7-0.5c-0.2-0.2-0.5-0.3-0.8-0.4
		c-0.3-0.1-0.6-0.2-1-0.3c-0.3-0.1-0.7-0.1-1.1-0.1c-0.8,0-1.5,0.1-2.1,0.4c-0.6,0.2-1.2,0.6-1.6,1c-0.4,0.4-0.8,1-1,1.6
		c-0.2,0.6-0.4,1.3-0.4,2.1c0,0.7,0.1,1.4,0.4,2c0.2,0.6,0.6,1.2,1.1,1.6c0.5,0.4,1,0.8,1.7,1s1.4,0.4,2.2,0.4
		c1.3,0,2.5-0.4,3.4-1.1v-3.9H52.9z M31.3,149v-3.1h3.6v-1.3h-3.6v-3h4.6v-1.3h-6.2v9.9h6.2l0-1.3H31.3z M17.1,141.3
		c-0.3-0.3-0.8-0.6-1.2-0.8c-0.5-0.2-1-0.3-1.6-0.3c-0.5,0-1,0.1-1.3,0.2c-0.4,0.2-0.7,0.4-1,0.6c-0.3,0.3-0.5,0.6-0.6,0.9
		c-0.1,0.3-0.2,0.7-0.2,1c0,0.4,0.1,0.8,0.2,1.1c0.1,0.3,0.3,0.6,0.5,0.8c0.2,0.2,0.5,0.4,0.7,0.5c0.3,0.1,0.6,0.2,0.9,0.3
		c0.3,0.1,0.6,0.2,0.9,0.3c0.3,0.1,0.5,0.2,0.7,0.3c0.2,0.1,0.4,0.3,0.5,0.4c0.1,0.2,0.2,0.4,0.2,0.7c0,0.5-0.2,0.9-0.5,1.2
		c-0.3,0.3-0.8,0.4-1.4,0.4c-0.4,0-0.7,0-0.9-0.1s-0.5-0.2-0.7-0.3c-0.2-0.1-0.3-0.2-0.5-0.3c-0.1-0.1-0.2-0.1-0.4-0.1
		c-0.1,0-0.1,0-0.2,0.1c-0.1,0-0.1,0.1-0.2,0.2l-0.5,0.8c0.2,0.2,0.4,0.4,0.6,0.5c0.2,0.2,0.5,0.3,0.8,0.4c0.3,0.1,0.6,0.2,0.9,0.3
		c0.3,0.1,0.6,0.1,0.9,0.1c0.5,0,1-0.1,1.4-0.2c0.4-0.2,0.8-0.4,1.1-0.7c0.3-0.3,0.5-0.6,0.7-1c0.2-0.4,0.2-0.8,0.2-1.2
		c0-0.4-0.1-0.8-0.2-1c-0.1-0.3-0.3-0.5-0.5-0.7c-0.2-0.2-0.5-0.4-0.7-0.5c-0.3-0.1-0.6-0.2-0.9-0.3s-0.6-0.2-0.9-0.3
		c-0.3-0.1-0.5-0.2-0.7-0.3c-0.2-0.1-0.4-0.3-0.5-0.4c-0.1-0.2-0.2-0.4-0.2-0.6c0-0.2,0-0.4,0.1-0.5c0.1-0.2,0.2-0.3,0.3-0.4
		c0.1-0.1,0.3-0.2,0.5-0.3c0.2-0.1,0.5-0.1,0.7-0.1c0.3,0,0.6,0,0.8,0.1c0.2,0.1,0.4,0.2,0.6,0.2c0.2,0.1,0.3,0.2,0.4,0.2
		c0.1,0.1,0.2,0.1,0.3,0.1c0.1,0,0.2,0,0.2-0.1c0.1,0,0.1-0.1,0.2-0.2L17.1,141.3z"/>
	
		<linearGradient id="SVGID_3_" gradientUnits="userSpaceOnUse" x1="-122" y1="377.8754" x2="-121" y2="377.8754" gradientTransform="matrix(9.424580e-015 153.915 153.915 -9.424580e-015 -57756.9883 18780.9082)">
		<stop  offset="0" style="stop-color:#80CFF5"/>
		<stop  offset="0.2883" style="stop-color:#299DC5"/>
		<stop  offset="0.6256" style="stop-color:#006D91"/>
		<stop  offset="0.8723" style="stop-color:#005070"/>
		<stop  offset="1" style="stop-color:#004563"/>
	</linearGradient>
	<path class="st2" d="M384.7,97.7V125h38.1V89.3h-64.8V54.2c-0.1-14.1,5.6-26.5,14.5-34.3c8.9-7.9,20.1-11.4,31.1-11.4
		c11.1,0,22.4,3.6,31.4,11.5c9,7.8,14.9,20.1,14.8,34.3h-27c-0.3-13.4-8.4-18-19.2-18.8c-10.5,0.8-18.1,4.8-18.6,18.8v8.1l64.8,0
		V152h-92.1V97.7H384.7L384.7,97.7z"/>
</g>
</svg>
