<svg width="92.1" height="143.5" xmlns="http://www.w3.org/2000/svg" xmlns:xlink="http://www.w3.org/1999/xlink"><g transform="translate(-357.7 -8.5)"><defs><path id="a" d="M-122-217.3h841.9V378H-122z"/></defs><clipPath id="b"><use width="100%" height="100%" xlink:href="#a"/></clipPath><linearGradient id="c" x1="-122" x2="-121" y1="377.88" y2="377.88" gradientTransform="matrix(0 153.92 153.92 0 -57757 18781)" gradientUnits="userSpaceOnUse"><stop stop-color="#80CFF5" offset="0"/><stop stop-color="#299DC5" offset=".29"/><stop stop-color="#006D91" offset=".63"/><stop stop-color="#005070" offset=".87"/><stop stop-color="#004563" offset="1"/></linearGradient><path class="st2" d="M384.7 97.7V125h38.1V89.3H358V54.2c-.1-14.1 5.6-26.5 14.5-34.3 8.9-7.9 20.1-11.4 31.1-11.4 11.1 0 22.4 3.6 31.4 11.5 9 7.8 14.9 20.1 14.8 34.3h-27c-.3-13.4-8.4-18-19.2-18.8-10.5.8-18.1 4.8-18.6 18.8v8.1h64.8V152h-92.1V97.7z" clip-path="url(#b)" fill="url(#c)"/></g></svg>