<svg xmlns="http://www.w3.org/2000/svg" viewBox="0 0 200 200"><path fill="#fff" d="M99.94 40a18.79 18.79 0 00-2.96 37.35l.39.06.12.02v4.55c-4.62 1.09-8.25 5.19-9.1 10.35h-1.36a2.35 2.35 0 00-2.35 2.34v8.02h-7.21A18.83 18.83 0 0058.8 86.24a18.79 18.79 0 00-10.04 34.67l.17.13.8.46.29.15.39.2.38.19.38.17a17.21 17.21 0 001.05.43l.27.1.6.2.17.06c.27.08.53.16.8.22l.15.04.65.15.25.05a19.26 19.26 0 003.69.37 18.7 18.7 0 009.98-2.86l.12-.09a18.82 18.82 0 008.56-13.5h7.2v9.16c0 1.3 1.06 2.35 2.36 2.35h10.46v3.69a18.8 18.8 0 00-7.58 34.5l.18.13a19.4 19.4 0 001.5.82l.36.18.42.19a17.94 17.94 0 001.9.72l.14.05.81.23c.05 0 .1.02.14.03.22.06.45.1.67.15l.23.05a18.82 18.82 0 0013.68-2.5l.12-.08a18.79 18.79 0 00-7.87-34.5v-3.66h3.29a2.35 2.35 0 100-4.7h-16.1V97.02h20.92v12.15a2.35 2.35 0 004.7 0v-1.79h7.68c.94 5.28 4.1 9.8 8.46 12.56.06.05.12.1.18.13a20.62 20.62 0 001.5.82l.36.18.42.19a19.65 19.65 0 001.01.41l.27.1c.2.08.41.14.62.21l.14.05.81.23.14.03.66.16.25.05.65.11a18.87 18.87 0 0013.02-2.61l.12-.09a18.8 18.8 0 00-10.1-34.64c-9.9 0-18.04 7.7-18.75 17.42H115v-8.02c0-1.3-1.05-2.34-2.35-2.34h-1.14c-.87-5.24-4.6-9.39-9.32-10.4v-4.48a18.68 18.68 0 007.74-2.74l.02-.02A18.79 18.79 0 0099.94 40zm0 4.7c7.78 0 14.1 6.32 14.1 14.1 0 3.43-1.23 6.58-3.28 9.03a11.76 11.76 0 00-1.67-4.13 7 7 0 00-3.46-2.78c.14-.5.21-1.02.21-1.56v-2.63a5.84 5.84 0 00-11.67 0v2.63c0 .53.07 1.05.2 1.54a7 7 0 00-3.56 2.82 11.76 11.76 0 00-1.66 4.15 14.03 14.03 0 01-3.32-9.08c0-7.77 6.33-14.1 14.1-14.1zm.06 10.9c.63 0 1.14.5 1.14 1.13v2.63c0 .61-.48 1.1-1.1 1.13h-.08c-.6-.02-1.1-.52-1.1-1.13v-2.63c0-.62.52-1.13 1.14-1.13zm3.19 9.58c.8 0 1.53.4 1.96 1.07a7.07 7.07 0 011.14 3.83v1.28a14.6 14.6 0 01-11.12.7l-.29-.1a14.96 14.96 0 01-1.03-.45l-.04-.01-.17-.1v-1.3c0-1.36.39-2.69 1.12-3.84a2.32 2.32 0 011.96-1.07H100.2zm-3.24 21.2c3.2 0 5.9 2.52 6.77 5.95H93.18c.86-3.43 3.57-5.94 6.77-5.94zm41.24 3.59c7.78 0 14.11 6.32 14.11 14.1 0 3.43-1.23 6.58-3.28 9.03a11.75 11.75 0 00-1.66-4.11 7 7 0 00-3.48-2.79c.14-.5.22-1.02.22-1.57v-2.62a5.84 5.84 0 00-11.68 0v2.62c0 .54.08 1.05.21 1.54a7 7 0 00-3.56 2.82 11.75 11.75 0 00-1.66 4.16 14.03 14.03 0 01-3.33-9.08c0-7.78 6.33-14.1 14.11-14.1zm-82.38.97c7.78 0 14.11 6.32 14.11 14.1 0 3.43-1.24 6.58-3.29 9.03a11.78 11.78 0 00-1.65-4.12 7 7 0 00-3.48-2.78c.14-.5.21-1.03.21-1.57v-2.63a5.84 5.84 0 00-11.67 0v2.63c0 .53.07 1.05.2 1.54a7 7 0 00-3.55 2.81 11.78 11.78 0 00-1.67 4.16 14.03 14.03 0 01-3.32-9.07c0-7.78 6.33-14.1 14.1-14.1zm41.27 8.76a4.38 4.38 0 00-2.35 8.05v1.87a2.35 2.35 0 004.7 0v-1.87a4.37 4.37 0 00-2.35-8.05zm41.18 1.17c.63 0 1.14.51 1.14 1.14v2.62c0 .62-.5 1.11-1.1 1.14h-.08c-.61-.03-1.1-.52-1.1-1.14v-2.62c0-.63.51-1.14 1.14-1.14zm-82.38.97c.62 0 1.14.5 1.14 1.13v2.63c0 .61-.5 1.11-1.1 1.13h-.09c-.6-.02-1.1-.52-1.1-1.13v-2.63c0-.62.52-1.13 1.15-1.13zm41.2 1.9a.32.32 0 010 .65.32.32 0 010-.64zm37.9 6.72H144.45c.8 0 1.53.4 1.96 1.07a7.06 7.06 0 011.13 3.84v1.27c-2.13 1-7.18 2.75-12.65.04v-1.31c0-1.37.4-2.7 1.13-3.84a2.32 2.32 0 011.96-1.07zm-82.38.97H62.07c.8 0 1.52.4 1.96 1.07a7.07 7.07 0 011.13 3.84v1.27c-2.14 1.02-7.17 2.76-12.65.04v-1.31c0-1.37.39-2.7 1.13-3.84a2.32 2.32 0 011.96-1.07zm56.9 2.6a2.35 2.35 0 00-2.21 3.23l.03.07a2.35 2.35 0 004.36-1.76l-.04-.08a2.35 2.35 0 00-2.14-1.47zM99.96 127.1c7.78 0 14.11 6.32 14.11 14.1 0 3.43-1.23 6.58-3.28 9.03a11.74 11.74 0 00-1.66-4.12 7 7 0 00-3.48-2.78c.14-.5.22-1.03.22-1.57v-2.63a5.84 5.84 0 00-11.68 0v2.63c0 .53.08 1.05.2 1.54a7 7 0 00-3.55 2.81 11.76 11.76 0 00-1.66 4.16 14.03 14.03 0 01-3.33-9.07c0-7.78 6.33-14.1 14.11-14.1zm.07 10.9c.63 0 1.14.5 1.14 1.13v2.63c0 .61-.5 1.11-1.1 1.13H100c-.61-.02-1.1-.52-1.1-1.13v-2.63c0-.62.51-1.13 1.14-1.13zm-3.28 9.59H103.22c.8 0 1.53.4 1.96 1.07a7.07 7.07 0 011.13 3.84v1.27c-2.14 1.02-7.16 2.76-12.65.04v-1.31c0-1.37.4-2.7 1.13-3.84a2.32 2.32 0 011.96-1.07z"/></svg>