<svg xmlns="http://www.w3.org/2000/svg" viewBox="0 0 200 200"><path fill="#fff" d="M80 40a6 6 0 00-6 6v28a6 6 0 006 6h12v10a2 2 0 003.41 1.41L106.83 80H132a6 6 0 006-6V46a6 6 0 00-6-6zm0 4h52a2 2 0 012 2v28a2 2 0 01-2 2h-26a2 2 0 00-1.41.59L96 85.17V78a2 2 0 00-2-2H80a2 2 0 01-2-2V46c0-1.1.9-2 2-2zm8 6v4h36v-4zm-46 6a2 2 0 00-2 2v48c0 1.1.9 2 2 2h10v-4h-8V60h10v-4zm16 0v4h4v-4zm8 0v4h4v-4zm76 0v4h6v18h4V58a2 2 0 00-2-2zm-54 2v4h36v-4zm0 8v4h36v-4zm60 16v4h4v-4zm0 8v4h4v-4zm-76 4a12 12 0 00-12 12v2c0 1.1.9 2 2 2v2c0 3.13 1.5 6.08 4 7.95v2.54l-6.75 1.93a10.04 10.04 0 00-7.25 9.62V144c0 1.1.9 2 2 2h36a2 2 0 002-2v-9.96a10.04 10.04 0 00-7.25-9.62L78 122.49v-2.54c2.5-1.87 4-4.82 4-7.95v-2a2 2 0 002-2v-2a12 12 0 00-12-12zm0 4a8 8 0 018 7.95 2 2 0 01-1.32-1.06l-.89-1.78a2 2 0 00-2.9-.77l-2.98 1.98a9.97 9.97 0 01-5.54 1.68H64a8 8 0 018-8zm34 0a6 6 0 00-6 6v24a6 6 0 006 6h14v8h-4v4h20v-4h-4v-8h14a6 6 0 006-6v-24a6 6 0 00-6-6zm0 4h40a2 2 0 012 2v24a2 2 0 01-2 2h-14v-10a2 2 0 00-2-2h-8a2 2 0 00-2 2v10h-14a2 2 0 01-2-2v-24c0-1.1.9-2 2-2zm-30.77 4.92a5.9 5.9 0 002.77 2.5V112a6 6 0 01-12 0v-2h.37c2.76 0 5.46-.82 7.76-2.35zM70 121.8a9.97 9.97 0 004 0v2.2c0 .57.26 1.1.69 1.48L72 127.5l-2.69-2.02c.43-.37.68-.91.69-1.48zm54 .2h4v20h-4zm-59.3 5.02l6.1 4.58a2 2 0 002.4 0l6.1-4.58 4.35 1.24a6.03 6.03 0 014.35 5.78V142h-4v-8h-4v8H64v-8h-4v8h-4v-7.96a6.03 6.03 0 014.35-5.78zM40 148v4h4v6c0 1.1.9 2 2 2h108a2 2 0 002-2v-6h4v-4zm8 4h104v4H48z"/></svg>