<svg xmlns="http://www.w3.org/2000/svg" viewBox="0 0 200 200"><path fill="#fff" d="M100 40a12 12 0 100 24 12 12 0 000-24zm0 4a8 8 0 110 16 8 8 0 010-16zm-25.95 8.03a2 2 0 00-.88 3.79l4.14 1.9A47.93 47.93 0 0052 100a2 2 0 004 0 43.93 43.93 0 0121.65-37.89l-1.45 3.02a2 2 0 003.6 1.74l4-8.35a1.92 1.92 0 00.12-.49c.04-.1.06-.21.08-.33a2 2 0 00-.06-.38c0-.12-.02-.23-.05-.35 0-.02-.02-.03-.03-.05v-.05c-.05-.1-.12-.19-.19-.27a2.02 2.02 0 00-.23-.33c-.11-.1-.25-.2-.39-.27a1.76 1.76 0 00-.22-.16l-8-3.66a2 2 0 00-.78-.15zm43.96 3.63a2 2 0 00-.8 3.84 43.93 43.93 0 0126.46 35.34l-2.26-2.25a2 2 0 00-2.82 2.82l6 6a2 2 0 002.82 0l6-6a2 2 0 00-2.82-2.82l-2.83 2.83a47.93 47.93 0 00-28.98-39.6 2 2 0 00-.77-.16zM92 66c-5.52 0-10 4.48-10 10v12a6 6 0 006 6h24a6 6 0 006-6V76c0-5.52-4.48-10-10-10h-.47l-.42.21a15.94 15.94 0 01-14.22 0l-.42-.21zm-.43 4.02a20.01 20.01 0 0016.86 0A6 6 0 01114 76v12a2 2 0 01-2 2H88a2 2 0 01-2-2V76a6 6 0 015.57-5.98zM58 106a12 12 0 100 24 12 12 0 000-24zm84 0a12 12 0 100 24 12 12 0 000-24zm-84 4a8 8 0 110 16 8 8 0 010-16zm84 0a8 8 0 110 16 8 8 0 010-16zm-92 22c-5.52 0-10 4.48-10 10v12a6 6 0 006 6h24a6 6 0 006-6v-12c0-5.52-4.48-10-10-10h-.47l-.42.2a15.94 15.94 0 01-14.22 0l-.42-.2zm84 0c-5.52 0-10 4.48-10 10v12a6 6 0 006 6h24a6 6 0 006-6v-12c0-5.52-4.48-10-10-10h-.47l-.42.2a15.94 15.94 0 01-14.22 0l-.42-.2zm-84.43 4.02a20.01 20.01 0 0016.86 0A6 6 0 0172 142v12a2 2 0 01-2 2H46a2 2 0 01-2-2v-12a6 6 0 015.57-5.98zm84 0a20.01 20.01 0 0016.86 0A6 6 0 01156 142v12a2 2 0 01-2 2h-24a2 2 0 01-2-2v-12a6 6 0 015.57-5.98zM90.03 138c-.2 0-.4.02-.6.08l-8 2.35-.07.04c-.19.07-.36.17-.52.29-.07.03-.13.08-.2.12a1.94 1.94 0 00-.64 1.5c.05.28.12.55.2.8.01.04 0 .07.02.1l4 7.65a2 2 0 003.55-1.85l-1.63-3.11a48.14 48.14 0 0032.64-1.78 2 2 0 10-1.56-3.68 44.36 44.36 0 01-28.53 1.96l1.87-.55a2 2 0 00-.53-3.92z"/></svg>