<svg xmlns="http://www.w3.org/2000/svg" viewBox="0 0 200 200"><path fill="#fff" d="M52 40a6 6 0 00-6 6v22a6 6 0 00-6 6v54a2 2 0 004 0V74c0-1.1.9-2 2-2h104a2 2 0 012 2v28a2 2 0 104 0V74a6 6 0 00-6-6V58a6 6 0 00-6-6h-42.67c-.43 0-.85-.14-1.2-.4L86.27 41.2a6.04 6.04 0 00-3.6-1.2zm0 4h30.67c.43 0 .85.14 1.2.4l13.86 10.4a6.04 6.04 0 003.6 1.2H144a2 2 0 012 2v10h-6v-2a6 6 0 00-6-6H62a6 6 0 00-6 6v2h-6V46c0-1.1.9-2 2-2zm4 6a2 2 0 000 4h8a2 2 0 000-4zm16 0a2 2 0 00-2 2 2 2 0 002 2 2 2 0 002-2 2 2 0 00-2-2zm8 0a2 2 0 000 4h2a2 2 0 000-4zM62 64h72a2 2 0 012 2v2H60v-2c0-1.1.9-2 2-2zm20 12a9.94 9.94 0 00-6.41 17.61C72.93 96.45 68 102.8 68 114a2 2 0 004 0c0-10.9 5.3-16.46 7.26-18.43.88.25 1.78.43 2.74.43.96 0 1.86-.18 2.74-.43C86.71 97.54 92 103.11 92 114a2 2 0 004 0c0-11.2-4.93-17.55-7.59-20.39A9.94 9.94 0 0082 76zm-24 2a8 8 0 00-8 8c0 2.02.77 3.84 2 5.24-1.98 2.38-2 4.79-2 6.76a2 2 0 004 0c0-1.8.01-3.11 1.33-4.5.84.3 1.73.5 2.67.5s1.83-.2 2.67-.5C61.99 94.9 62 96.2 62 98a2 2 0 004 0c0-1.97-.02-4.38-2-6.76 1.23-1.4 2-3.22 2-5.24a8 8 0 00-8-8zm48 0a8 8 0 00-8 8c0 2.02.77 3.84 2 5.24-1.98 2.38-2 4.79-2 6.76a2 2 0 004 0c0-1.8.01-3.11 1.33-4.5.84.3 1.73.5 2.67.5s1.83-.2 2.67-.5c1.32 1.39 1.33 2.7 1.33 4.5a2 2 0 004 0c0-1.97-.02-4.38-2-6.76 1.23-1.4 2-3.22 2-5.24a8 8 0 00-8-8zm-24 2a6 6 0 11-.01 12.02A6 6 0 0182 80zm-24 2a4 4 0 110 8 4 4 0 010-8zm48 0a4 4 0 110 8 4 4 0 010-8zm24 18c-16.54 0-30 13.46-30 30s13.46 30 30 30 30-13.46 30-30-13.46-30-30-30zm0 4c14.34 0 26 11.66 26 26s-11.66 26-26 26-26-11.66-26-26 11.66-26 26-26zm0 6c-5.51 0-10 4.49-10 10v2h-2a6 6 0 00-6 6v12a6 6 0 006 6h24a6 6 0 006-6v-12a6 6 0 00-6-6h-18v-2a6 6 0 019.97-4.5 2 2 0 102.64-3A10 10 0 00130 110zm-12 16h24a2 2 0 012 2v12a2 2 0 01-2 2h-24a2 2 0 01-2-2v-12c0-1.1.9-2 2-2zm10 4a2 2 0 000 4v2a2 2 0 004 0v-2a2 2 0 000-4zm-86 4a2 2 0 00-2 2 2 2 0 002 2 2 2 0 002-2 2 2 0 00-2-2zm0 8a2 2 0 00-2 2v6c0 3.2 2.8 6 6 6h56a2 2 0 000-4H46c-.9 0-2-.9-2-2v-6a2 2 0 00-2-2z"/></svg>