<svg xmlns="http://www.w3.org/2000/svg" viewBox="0 0 200 200"><path fill="#fff" d="M77.77 40a18.01 18.01 0 00-15.9 10H42a2 2 0 00-2 2v32c0 1.1.9 2 2 2h26v18a2 2 0 00.8 1.6l8 6a2 2 0 002.4 0l8-6a2 2 0 00.21-3.01L84.83 100l2.58-2.58a2 2 0 000-2.83L84.83 92l2.58-2.58a2 2 0 000-2.83l-.58-.59H98a6.03 6.03 0 006-6c0-1.48-.55-2.9-1.54-4a5.98 5.98 0 000-8 5.98 5.98 0 000-8A6 6 0 0098 50h-3.87a18.01 18.01 0 00-16.36-10zm.45 4a13.95 13.95 0 0112.76 8.74 14.18 14.18 0 01.92 7.01A13.94 13.94 0 0185 70.11a2 2 0 00-1 1.73v7.33l-3.41 3.42a2 2 0 000 2.83L83.17 88 80.6 90.6a2 2 0 000 2.83L83.17 96 80.6 98.6a2 2 0 000 2.83l2.37 2.37L80 106V72h-4v34l-4-3V71.84a2 2 0 00-1-1.73 14.11 14.11 0 01-5.63-6.1H71a7 7 0 006.34-4.05 6 6 0 10-4.1-9.6 6.97 6.97 0 00-2.24-.36h-4.5a14 14 0 0111.72-6zm-.15 8a2 2 0 01-.07 4h-.07a6.97 6.97 0 00-1.43-3.32 2 2 0 011.57-.68zM44 54h27a3 3 0 010 6h-9a2 2 0 00-1.86 1.26l-.28.72A12.71 12.71 0 0148 70v4c5.69.02 11-2.86 14.07-7.64a18.17 18.17 0 005.93 6.6V82H44zm51.55 0H98a2 2 0 012 2c0 .52-.2 1.03-.57 1.39l-.04.04c-.37.37-.87.58-1.39.57h-2c0-1.34-.15-2.68-.45-4zm0 8H98a2 2 0 012 2c0 .52-.2 1.03-.57 1.39l-.04.04c-.37.37-.87.58-1.39.57h-3.88a17.9 17.9 0 001.43-4zm-4.15 8H98a2 2 0 012 2c0 .52-.2 1.02-.57 1.39l-.04.04c-.37.37-.87.58-1.39.57H88v-1.05c1.25-.84 2.4-1.83 3.4-2.95zm22.6 6a2 2 0 00-1.79 2.9l4.55 9.1h-12.11a6.65 6.65 0 00-2.1 12.96l1.45.48V114a6 6 0 003.4 5.41l-4.1 6.66A22.27 22.27 0 00122.26 160h7.48A22.29 22.29 0 00152 137.74v-1.6c0-4.4-1.3-8.7-3.74-12.35l-2.52-3.79H158a2 2 0 002-2V90a2 2 0 00-2-2h-10.76l-5.45-10.9A2 2 0 00140 76zm-26 2h10a2 2 0 012 2c0 .52-.2 1.02-.57 1.39l-.04.04c-.37.37-.87.58-1.39.57H86.83l.58-.58A2 2 0 0088 80zm29.24 2h17.52l-4 8h-9.52zm21.76.47l3.76 7.53h-7.52zM104.65 92H140v24h-30a2 2 0 01-2-2v-14a2 2 0 00-1.37-1.9l-2.82-.94a2.65 2.65 0 01.84-5.16zM144 92h12v24h-12zm4 16v4h4v-4zm-36.26 12h29.19l4 6.01c2.01 3 3.08 6.53 3.07 10.13v1.6A18.28 18.28 0 01129.74 156h-7.48a18.27 18.27 0 01-15.56-27.83zm12.26 4v4a6 6 0 100 12h4a2 2 0 010 4h-8v4h4v4h4v-4a6 6 0 100-12h-4a2 2 0 010-4h8v-4h-4v-4z"/></svg>