<svg xmlns="http://www.w3.org/2000/svg" viewBox="0 0 200 200"><path fill="#fff" d="M100 40c-33.09 0-60 26.91-60 60s26.91 60 60 60c3.34 0 6.76-.32 10.45-.96a2.5 2.5 0 00-.87-4.93c-3.4.6-6.54.9-9.58.9-30.33 0-55-24.68-55-55 0-30.33 24.67-55 55-55 30.32 0 55 24.67 55 55 0 4.35-.58 8.87-1.72 13.42a2.5 2.5 0 104.84 1.21 60.16 60.16 0 001.87-14.64c0-33.09-26.9-60-60-60zm0 10c-27.57 0-50 22.43-50 50a2.5 2.5 0 005 0c0-24.81 20.19-45 45-45a2.5 2.5 0 000-5zm0 25c-13.79 0-25 11.22-25 25 0 13.79 11.21 25 25 25 13.78 0 25-11.22 25-25 0-13.79-11.22-25-25-25zm0 5c11.03 0 20 8.97 20 20s-8.97 20-20 20-20-8.97-20-20 8.97-20 20-20zm0 15a5 5 0 100 10 5 5 0 000-10zm37.41 12.5a2.5 2.5 0 00-2.4 2.5v7.5c0 3.24-3.9 6.89-8.03 10.74-5.62 5.25-11.98 11.2-11.98 19.25 0 6.35 5.46 11.01 14.6 12.47a2.48 2.48 0 002.54-1.18l4.17-6.95 1.24 6.16a2.5 2.5 0 002.83 1.97c12.1-1.85 19.62-8.68 19.62-17.85 0-17.65-20.11-33.43-20.97-34.1a2.51 2.51 0 00-1.62-.51zm2.59 8.02c5.58 5.3 15 15.83 15 26.6 0 6.97-6.37 10.9-13.04 12.46l-2.01-10.07a2.5 2.5 0 00-4.6-.8l-6.6 11c-3.25-.75-8.75-2.68-8.75-7.21 0-5.88 5.28-10.82 10.39-15.6 4.94-4.62 9.6-8.98 9.6-14.4z"/></svg>