<svg xmlns="http://www.w3.org/2000/svg" viewBox="0 0 200 200"><path fill="#fff" d="M99.2 40a40.7 40.7 0 00-24.91 8.42 1.76 1.76 0 102.13 2.8 37.2 37.2 0 0122.78-7.7 37.6 37.6 0 0137.54 37.54 37.6 37.6 0 01-37.54 37.55h-.01a37.6 37.6 0 01-37.54-37.55c0-8.8 3.11-17.38 8.77-24.12a1.76 1.76 0 10-2.69-2.26 41.1 41.1 0 00-9.6 26.38 41.11 41.11 0 0039.3 41.03v6.27h-46.9c-.97 0-1.76.78-1.76 1.75V137a1.76 1.76 0 103.52 0v-5.12h28.9V137a1.76 1.76 0 103.52 0v-5.12h28.97V137a1.76 1.76 0 103.52 0v-5.12h28.97V137a1.76 1.76 0 103.51 0v-6.88c0-.97-.78-1.75-1.75-1.75h-46.98v-6.27a41.11 41.11 0 0039.31-41.03A41.11 41.11 0 0099.2 40zm0 8.35a32.75 32.75 0 00-32.72 32.71c0 7.25 2.33 14.13 6.73 19.87A1.75 1.75 0 1076 98.8a28.93 28.93 0 01-6-17.73c0-16.1 13.1-29.2 29.2-29.2a29.18 29.18 0 0128.88 24.91 1.76 1.76 0 103.48-.51A32.7 32.7 0 0099.2 48.35zm-.07 8.38c-.97 0-1.76.79-1.76 1.76v.03a1.76 1.76 0 103.52 0v-.03c0-.97-.79-1.76-1.76-1.76zm11.43 3.05c-.63-.01-1.24.3-1.57.88l-.01.03a1.76 1.76 0 103.04 1.75l.02-.02a1.76 1.76 0 00-1.48-2.64zm-22.73 0a1.75 1.75 0 00-1.47 2.64l.01.02a1.76 1.76 0 103.04-1.76l-.01-.02c-.33-.58-.95-.9-1.57-.88zm11.43 3.16c-.97 0-1.76.78-1.76 1.75v10.52a6.1 6.1 0 00-.5 11.54l4.6 7.67a3.16 3.16 0 004.34 1.08l2.84-1.7a3.16 3.16 0 001.09-4.33l-4.62-7.7c.02-.24.04-.47.04-.7a6.1 6.1 0 00-4.27-5.82V64.7c0-.97-.79-1.75-1.76-1.75zm-19.55 5.11a1.76 1.76 0 00-.93 3.28l.02.01a1.75 1.75 0 002.4-.64c.49-.84.2-1.91-.64-2.4l-.02-.02a1.75 1.75 0 00-.83-.23zm38.98 0c-.29 0-.57.08-.84.23l-.02.02a1.76 1.76 0 101.76 3.04l.02-.01a1.76 1.76 0 00-.92-3.28zm-19.5 10.44a2.58 2.58 0 110 5.16 2.58 2.58 0 010-5.16zm-22.52.77a1.76 1.76 0 000 3.51h.03a1.76 1.76 0 000-3.51h-.02zm45.02 0a1.76 1.76 0 000 3.51h.03a1.76 1.76 0 000-3.51h-.02zm8.24 4.18c-.89-.03-1.67.62-1.8 1.52a29.27 29.27 0 01-28.93 25.3c-6.31 0-12.32-1.97-17.37-5.72a1.76 1.76 0 10-2.1 2.83 32.68 32.68 0 0051.88-21.94 1.76 1.76 0 00-1.68-2zm-26.55 2.05l3.29 5.48-2.23 1.33-3.28-5.47a6.1 6.1 0 002.22-1.34zm-23.75 4.96c-.28 0-.56.08-.83.23l-.02.02a1.76 1.76 0 001.76 3.04l.02-.01a1.76 1.76 0 00-.93-3.28zm39.12 0a1.76 1.76 0 00-.91 3.28l.02.01a1.75 1.75 0 002.4-.65c.48-.84.19-1.91-.65-2.4l-.03-.01a1.75 1.75 0 00-.83-.23zm-8.3 8.25a1.75 1.75 0 00-1.47 2.64l.01.02a1.76 1.76 0 103.05-1.75l-.02-.02c-.33-.58-.94-.9-1.57-.89zm-22.5 0c-.62-.01-1.24.3-1.58.87l-.01.03a1.76 1.76 0 003.04 1.77l.01-.02a1.76 1.76 0 00-1.46-2.65zm11.31 3.05c-.97 0-1.76.79-1.76 1.76v.03a1.76 1.76 0 103.52 0v-.03c0-.97-.79-1.76-1.76-1.76zM59.14 142.3c-.45 0-.9.18-1.24.52l-.37.37a4.26 4.26 0 00-2.53-.84h-9.07a4.3 4.3 0 00-4.3 4.3v9.06a4.3 4.3 0 004.3 4.29H55a4.3 4.3 0 004.29-4.29v-9.07l-.01-.23 1.1-1.1a1.76 1.76 0 00-1.24-3zm97.46 0c-.45 0-.9.17-1.24.52l-.37.37a4.26 4.26 0 00-2.53-.84h-9.07a4.3 4.3 0 00-4.29 4.3v9.06a4.3 4.3 0 004.3 4.29h9.06a4.3 4.3 0 004.3-4.29v-9.07l-.02-.23 1.1-1.1a1.76 1.76 0 00-1.24-3zm-78.18.05a4.3 4.3 0 00-4.3 4.3v9.06a4.3 4.3 0 004.3 4.29h9.07a4.3 4.3 0 004.29-4.29v-9.07a4.3 4.3 0 00-4.3-4.29zm32.48 0a4.3 4.3 0 00-4.29 4.3v9.06a4.3 4.3 0 004.3 4.29h9.06a4.3 4.3 0 004.3-4.29v-9.07a4.3 4.3 0 00-4.3-4.29zm-64.97 3.52h8.92l-4.46 4.46-.67-.68a1.76 1.76 0 10-2.49 2.49l1.92 1.91a1.75 1.75 0 002.48 0l4.14-4.14v5.8c0 .43-.34.77-.77.77h-9.07a.78.78 0 01-.78-.77v-9.07c0-.43.35-.77.78-.77zm32.49 0h9.07c.42 0 .77.34.77.77v9.07c0 .43-.35.77-.77.77h-9.07a.78.78 0 01-.78-.77v-9.07c0-.43.35-.77.78-.77zm32.48 0h9.07c.43 0 .78.34.78.77v9.07c0 .43-.35.77-.78.77h-9.07a.78.78 0 01-.77-.77v-9.07c0-.43.35-.77.77-.77zm32.5 0h8.91l-4.46 4.46-.67-.68a1.76 1.76 0 00-2.49 2.49l1.92 1.91a1.75 1.75 0 002.49 0l4.14-4.14v5.8c0 .43-.35.77-.78.77h-9.07a.78.78 0 01-.77-.77v-9.07c0-.43.34-.77.77-.77z"/></svg>