<svg xmlns="http://www.w3.org/2000/svg" viewBox="0 0 200 200"><path fill="#fff" d="M96.75 50.31a2.34 2.34 0 00-2.34 2.35A2.34 2.34 0 0096.75 55a2.34 2.34 0 002.35-2.34 2.34 2.34 0 00-2.35-2.35zm-45.03.12c-1.58 0-3.12.25-4.56.86A11.59 11.59 0 0040 62.02v53.84c0 6.46 5.26 11.82 11.72 11.82H85v7.96h-3.63a11.73 11.73 0 00-11.72 11.7c0 1.3 1.05 2.35 2.34 2.35h80.98a7.13 7.13 0 007.03-7.14V88.71a7.04 7.04 0 00-6.33-7v-19.7a11.6 11.6 0 00-7.16-10.72c-1.44-.6-2.98-.86-4.56-.86H107.3a2.35 2.35 0 000 4.68h34.65a6.95 6.95 0 017.03 6.9V81.8H122.5a6.94 6.94 0 00-7.03 6.9v20.25H44.69V62.02c0-3.87 3.16-6.91 7.03-6.91H86.2a2.34 2.34 0 000-4.68zm56.25 15.22a2.3 2.3 0 00-2.26 1.64l-3.33 11.65-16.77 5.44-3.07-10.04a2.35 2.35 0 00-4.49 1.36l2.48 8.09-11.73-3.61c-.96-.3-2 .05-2.59.86l-4.27 5.9a2.34 2.34 0 103.8 2.75l3.29-4.55 14.34 4.42c.46.14.96.14 1.42-.01l8.27-2.69-.63 11.41a2.34 2.34 0 004.68.27l.73-13.23 7.18-2.34a2.26 2.26 0 001.53-1.52l3.19-11.12h9.01a2.34 2.34 0 100-4.68zm14.53 20.83h2.89l1.87 7.53a2.4 2.4 0 002.27 1.83h16.4a2.4 2.4 0 002.28-1.83l1.87-7.53h2.89c1.3 0 2.34 1.05 2.34 2.34v53.84c0 1.3-1.05 2.35-2.34 2.35H122.5a2.34 2.34 0 01-2.34-2.35V88.82c0-1.3 1.05-2.34 2.34-2.34zm7.72 0h15.03l-1.14 4.68h-12.75zm7.51 16.3a2.34 2.34 0 00-1.76 3.88l4.09 4.66-2.77 6.78-8.06 1.36c-.96.16-1.73.91-1.91 1.87l-1.73 9.08a2.33 2.33 0 002.3 2.78c1.13 0 2.1-.8 2.3-1.9l1.43-7.49 6.17-1.04 2.08 3.41a2.33 2.33 0 003.22.78 2.33 2.33 0 00.78-3.22l-2.3-3.75 3.38-8.23c.34-.82.18-1.75-.4-2.42l-5.05-5.76c-.45-.5-1.1-.8-1.77-.8zM44.7 113.64h70.78V123H51.72a7.13 7.13 0 01-7.03-7.14zm45 14.04h14.06v7.96H89.69zm18.75 0h7.03v8.34c-1-.26-2.07-.38-3.17-.38h-3.86zm-27.07 12.64h30.93a7.3 7.3 0 013.17.71v1.52c0 .86.16 1.7.44 2.46H74.74a6.93 6.93 0 016.63-4.69z"/></svg>