<svg xmlns="http://www.w3.org/2000/svg" data-name="Out line" viewBox="0 0 200 200"><path fill="#fff" d="M85.64 40a10.06 10.06 0 00-10.05 10.05v20.1h4.02v-20.1a6.04 6.04 0 016.03-6.03h64.31a6.04 6.04 0 016.03 6.03v38.19h-2v-38.2a4.02 4.02 0 00-4.03-4.01H85.64a4.02 4.02 0 00-4.02 4.02v20.1h4.02v-20.1h64.31v38.19h-38.19v4.02h43.87a6.04 6.04 0 01-5.68 4.01h-38.19v4.02h10.05v2.01a10 10 0 002.02 6.03h-12.07v4.02h20.1a2.01 2.01 0 000-4.02 6.04 6.04 0 01-6.03-6.03v-2h24.12A10.06 10.06 0 00160 90.24v-40.2A10.06 10.06 0 00149.95 40zm22.7 20.69l-4.03 4.02 2.85 2.84 4.02-4.02zm-8.05 8.04L85.64 83.38V80.2h-4.02v8.04a2.01 2.01 0 002 2h8.05v-4.01h-3.19l14.66-14.66zm5.45 3.43v4.02h3.18L94.26 90.83l2.85 2.85 14.65-14.66v3.19h4.02v-8.04a2.01 2.01 0 00-2-2.01zm-32.16 2a10.06 10.06 0 00-10.05 10.06v8.04h-2.01a2.01 2.01 0 00-1.42.58L50.05 102.9a2.01 2.01 0 00-.59 1.42v23.29l-2 2-.6-.58a2.01 2.01 0 00-2.84 0L40 133.04l2.84 2.84 2.6-2.6 19.27 19.27-4.61 4.6 2.84 2.85 6.03-6.03a2.01 2.01 0 000-2.84l-4.6-4.61 2-2.01H97.7a10.06 10.06 0 0010.05-10.05V90.25h-4.02v44.21a6.04 6.04 0 01-6.03 6.03H73.58a6.04 6.04 0 01-6.03-6.03V108.2A14.1 14.1 0 0079.6 94.26a2.01 2.01 0 00-2.01-2H67.55v-8.04a6.04 6.04 0 016.03-6.03h14.07v-4.02zm16.67 20.7l-4.02 4.01 2.84 2.85 4.02-4.02zm-27.9 1.41H75.4a10.07 10.07 0 01-9.85 8.04 2.01 2.01 0 00-2.01 2.01v12.06a4.02 4.02 0 01-4.02 4.02v4.02a7.99 7.99 0 004.02-1.08v9.12a10 10 0 002.01 6.03 2.01 2.01 0 00-1.42.59l-2.6 2.6-11.23-11.23 2.6-2.6a2.01 2.01 0 00.59-1.42v-23.28zm23.29 30.15a6.04 6.04 0 00-6.03 6.03 6.03 6.03 0 106.03-6.03zm-.03 4.02a2.01 2.01 0 01.03 0 2.01 2.01 0 012 2.01 2.01 2.01 0 11-2.03-2z"/></svg>