<svg xmlns="http://www.w3.org/2000/svg" viewBox="0 0 200 200"><path fill="#fff" d="M119.1 40c-.96 0-1.75.79-1.75 1.76v3.64a1.76 1.76 0 003.51 0v-3.64c0-.97-.78-1.76-1.75-1.76zm-30.93 0a41.63 41.63 0 00-28.49 11.22 1.76 1.76 0 002.4 2.57 38.12 38.12 0 0126.1-10.27 38.32 38.32 0 0138.27 38.27 38.32 38.32 0 01-38.28 38.27A38.32 38.32 0 0149.9 81.8c0-8.16 2.53-15.95 7.32-22.52a1.76 1.76 0 00-2.84-2.07 41.47 41.47 0 00-8 24.59c0 11.76 4.9 22.4 12.74 30v33.78h-1.88c-.97 0-1.76.78-1.76 1.75v10.92c0 .97.79 1.76 1.76 1.76h61.87c.97 0 1.75-.79 1.75-1.76v-10.92c0-.97-.78-1.75-1.75-1.75h-1.88v-14.68h13.3c8.71 0 15.8-7.1 15.8-15.82V65.2a9.05 9.05 0 10-10.8-8.86 9.05 9.05 0 007.3 8.86v49.86c0 6.78-5.53 12.3-12.3 12.3h-13.3V111.8a41.67 41.67 0 0012.73-30.01A41.84 41.84 0 0088.17 40zm39.94 3.1c-.45 0-.9.18-1.24.52l-2.57 2.57a1.76 1.76 0 102.48 2.49l2.58-2.57a1.76 1.76 0 00-1.25-3zm-39.94 4.18a34.55 34.55 0 00-34.5 34.5 34.55 34.55 0 0034.5 34.52c8.56 0 16.78-3.16 23.13-8.9a34.43 34.43 0 0011.18-21.86 1.76 1.76 0 00-3.5-.37 30.92 30.92 0 01-30.8 27.61c-17.1 0-31-13.9-31-31 0-17.08 13.9-30.99 31-30.99a31.02 31.02 0 0130.75 27.12 1.76 1.76 0 003.49-.43 34.54 34.54 0 00-34.25-30.2zm56.41 3.54a5.53 5.53 0 11-.01 11.06 5.53 5.53 0 01.01-11.06zm-17 1.3a1.76 1.76 0 100 3.5h3.64a1.76 1.76 0 100-3.5zm-39.4 17A12.69 12.69 0 0075.5 81.78c0 6.99 5.68 12.67 12.67 12.67 7 0 12.68-5.68 12.68-12.67S95.16 69.1 88.17 69.1zm0 3.5a9.17 9.17 0 010 18.33 9.17 9.17 0 010-18.32zm25.53 42.22v30.73H62.64v-30.73c1.2.94 2.46 1.8 3.76 2.6v22.6c0 .98.79 1.76 1.76 1.76h17.1a1.76 1.76 0 100-3.51H69.9v-18.92a41.53 41.53 0 0018.26 4.2c6.55 0 12.74-1.5 18.26-4.2v18.92H92.91a1.76 1.76 0 100 3.51h15.28c.97 0 1.76-.78 1.76-1.75v-22.6c1.3-.8 2.56-1.67 3.76-2.6zm-38.27 12.53a1.76 1.76 0 100 3.52h25.47a1.76 1.76 0 100-3.52zM59 149.08h58.35v7.4H59z"/></svg>