<svg xmlns="http://www.w3.org/2000/svg" viewBox="0 0 200 200"><path fill="#fff" d="M100 40c-1.2 0-2.28.67-2.81 1.75l-3.65 7.4-8.15 1.18c-1.2.18-2.16 1-2.53 2.14a3.12 3.12 0 00.8 3.22l5.9 5.75-1.4 8.13a3.12 3.12 0 001.25 3.07c.97.71 2.23.8 3.3.24l7.29-3.84 7.3 3.84a3.13 3.13 0 004.54-3.3l-1.4-8.14 5.9-5.75a3.12 3.12 0 00.8-3.22 3.12 3.12 0 00-2.53-2.14l-8.15-1.18-3.65-7.4A3.11 3.11 0 00100 40zm-26.18 1.53a1.76 1.76 0 00-.77 3.36l2.3 1.05a1.75 1.75 0 002.32-.88c.4-.88 0-1.93-.87-2.33l-2.3-1.04c-.22-.1-.45-.15-.68-.16zm52.59 0c-.23.01-.46.06-.68.16l-2.3 1.04a1.76 1.76 0 001.46 3.2l2.3-1.03a1.76 1.76 0 00-.78-3.37zM100 44l3.4 6.88a3.13 3.13 0 002.35 1.72l7.6 1.1-5.5 5.36a3.14 3.14 0 00-.9 2.78l1.3 7.57-6.8-3.57c-.9-.48-2-.48-2.9 0l-6.8 3.57 1.3-7.57a3.14 3.14 0 00-.9-2.78l-5.5-5.36 7.6-1.1a3.13 3.13 0 002.36-1.72zM70.52 54.86a1.76 1.76 0 000 3.52h2.52a1.76 1.76 0 000-3.52zm56.67 0a1.76 1.76 0 000 3.52h2.52a1.76 1.76 0 000-3.52zm-51.17 12.3c-.22 0-.46.05-.68.15l-2.29 1.04a1.76 1.76 0 001.45 3.2l2.3-1.04a1.76 1.76 0 00-.78-3.36zm48.2 0a1.76 1.76 0 00-.78 3.35l2.29 1.05a1.75 1.75 0 002.33-.88c.4-.88 0-1.93-.88-2.33l-2.29-1.04c-.22-.1-.45-.15-.68-.16zM86.5 78.3a3.27 3.27 0 00-3.27 3.27v12.46a1.76 1.76 0 103.52 0V81.81h26.49v59.97h-26.5v-40.25a1.76 1.76 0 10-3.51 0v6.3H56.5a3.27 3.27 0 00-3.26 3.26v30.7h-8.66a4.59 4.59 0 00-4.58 4.58v11.87c0 .97.79 1.76 1.76 1.76h116.48c.97 0 1.76-.79 1.76-1.76v-11.87a4.59 4.59 0 00-4.58-4.59h-8.66v-44.2c0-1.8-1.46-3.27-3.26-3.27h-26.74V81.57c0-1.8-1.47-3.27-3.27-3.27zm30.25 19.53h26.49v43.95h-8.57a1.76 1.76 0 000 3.52h20.74c.59 0 1.07.48 1.07 1.07v10.11H43.5v-10.11c0-.59.48-1.07 1.07-1.07h82.61a1.76 1.76 0 000-3.52h-10.43zm-60.01 13.5h26.49v30.45H56.75z"/></svg>