<svg xmlns="http://www.w3.org/2000/svg" viewBox="0 0 200 200"><path fill="#fff" d="M44.69 40A4.7 4.7 0 0040 44.69v7.97a4.7 4.7 0 004.69 4.68v66.1a7.04 7.04 0 007.03 7.03h31.27l-14.13 24.47A3.39 3.39 0 0071.8 160h10.74c1.2 0 2.32-.65 2.92-1.69l5.64-9.77v8.08a3.38 3.38 0 003.38 3.38h11.06a3.38 3.38 0 003.38-3.38v-8.08l5.64 9.77a3.39 3.39 0 002.92 1.69h10.74a3.39 3.39 0 002.93-5.06L117 130.47h31.27a7.04 7.04 0 007.03-7.03V74.69a2.34 2.34 0 00-4.69 0v48.75c0 1.29-1.05 2.34-2.34 2.34H51.72a2.35 2.35 0 01-2.34-2.34v-66.1h39.14a2.34 2.34 0 000-4.68H44.69v-7.97H155.3v7.97h-45.94a2.34 2.34 0 000 4.68h45.94a4.7 4.7 0 004.69-4.68v-7.97a4.7 4.7 0 00-4.69-4.69zM100 52.66A2.36 2.36 0 0097.66 55a2.36 2.36 0 002.34 2.34 2.36 2.36 0 002.34-2.34 2.36 2.36 0 00-2.34-2.34zm-33.05 8.66a8.92 8.92 0 000 17.8 8.92 8.92 0 000-17.8zm86.02 1.41a2.36 2.36 0 00-2.34 2.35 2.36 2.36 0 002.34 2.34 2.36 2.36 0 002.34-2.34 2.36 2.36 0 00-2.34-2.35zM66.95 66a4.22 4.22 0 110 8.45 4.22 4.22 0 010-8.45zm63.4 4.66a2.34 2.34 0 00-1.65 4l.33.34h-20.39a44.18 44.18 0 00-39.4 24.36 8.92 8.92 0 10-.96 17.76 8.92 8.92 0 005.33-16.03 39.48 39.48 0 0135.03-21.4h20.39l-.33.32a2.34 2.34 0 003.31 3.32l4.33-4.33c.92-.92.92-2.4 0-3.32l-4.33-4.33a2.34 2.34 0 00-1.65-.69zm-2.5 26.81a2.34 2.34 0 00-1.66 4l3.21 3.22-3.21 3.21a2.34 2.34 0 003.31 3.32l3.22-3.22 3.21 3.22a2.34 2.34 0 003.31 0c.92-.92.92-2.4 0-3.32l-3.21-3.21 3.21-3.22a2.34 2.34 0 10-3.31-3.31l-3.21 3.21-3.22-3.21a2.34 2.34 0 00-1.66-.69zM68.26 104a4.22 4.22 0 110 8.44 4.22 4.22 0 010-8.44zm20.13 26.47h2.7v8.7l-9.33 16.14h-7.71zm7.38 0h8.44v24.84h-8.44zm13.13 0h2.69l14.34 24.84h-7.71l-9.32-16.14z"/></svg>