<svg xmlns="http://www.w3.org/2000/svg" viewBox="0 0 200 200"><path fill="#fff" d="M58.18 69.07a10.3 10.3 0 00.43 20.6 10.32 10.32 0 0010.3-10.3 10.3 10.3 0 00-10.73-10.3zm82.78 0a10.3 10.3 0 00.43 20.6 10.32 10.32 0 0010.31-10.3 10.3 10.3 0 00-10.74-10.3zm-82.35 3.42a6.89 6.89 0 016.88 6.88 6.88 6.88 0 11-6.88-6.88zm82.78 0a6.89 6.89 0 016.88 6.88 6.88 6.88 0 11-6.88-6.88zm-41.94 3.34a13.21 13.21 0 00.55 26.41 13.23 13.23 0 0013.21-13.21 13.21 13.21 0 00-13.76-13.2zm.55 3.42a9.8 9.8 0 019.78 9.78 9.78 9.78 0 11-9.78-9.78zM51.51 92.03A11.53 11.53 0 0040 103.55v5.86a1.71 1.71 0 001.71 1.72H75.5a1.71 1.71 0 001.71-1.72v-5.86a11.53 11.53 0 00-11.5-11.52zm82.79 0a11.53 11.53 0 00-11.51 11.52v5.86a1.71 1.71 0 001.71 1.72h33.79a1.71 1.71 0 001.71-1.72v-5.86a11.53 11.53 0 00-11.51-11.52zM51.5 95.46h14.2a8.1 8.1 0 018.07 8.09v4.15h-4.64v-3.02a1.71 1.71 0 00-3.43 0v3.02H51.5v-3.02a1.71 1.71 0 00-3.43 0v3.02h-4.64v-4.15a8.1 8.1 0 018.08-8.09zm82.79 0h14.19a8.1 8.1 0 018.08 8.09v4.15h-4.79v-3.02a1.71 1.71 0 00-3.42 0v3.02h-13.93v-3.02a1.71 1.71 0 00-3.43 0v3.02h-4.78v-4.15a8.1 8.1 0 018.08-8.09zm-43.8 11.08a14.84 14.84 0 00-14.8 14.83v7.85a1.71 1.71 0 001.7 1.72h45.2a1.71 1.71 0 001.71-1.72v-7.85a14.04 14.04 0 00-.09-1.53 1.72 1.72 0 10-3.43.13 1.77 1.77 0 00.01.19 10.91 10.91 0 01.08 1.21v6.14h-7.17v-4.62a1.71 1.71 0 00-3.42 0v4.61H89.7v-4.61a1.71 1.71 0 00-3.42 0v4.62h-7.17v-6.14a11.4 11.4 0 0111.38-11.4h14.95a1.71 1.71 0 000-3.43zm24.85 1.4a1.71 1.71 0 00-.7 3.28 10.95 10.95 0 012.5 1.71 1.7 1.7 0 001.16.46v-.01a1.71 1.71 0 001.16-2.98 14.35 14.35 0 00-3.33-2.27 1.77 1.77 0 00-.78-.19z"/></svg>