<svg xmlns="http://www.w3.org/2000/svg" viewBox="0 0 200 200"><path fill="#fff" d="M82.25 58.5c-.97 0-1.75.8-1.75 1.76v2.93a1.75 1.75 0 003.5 0v-2.93c0-.97-.78-1.75-1.75-1.75zm8.35 2.94c-.57.02-1.1.31-1.43.83l-1.65 2.67a1.75 1.75 0 102.98 1.85l1.66-2.67a1.75 1.75 0 00-1.56-2.68zm-21.17 5.59A29.46 29.46 0 0040 96.46c0 6.48 2.08 12.64 6 17.8a29.7 29.7 0 0015.17 10.45 1.75 1.75 0 10.98-3.37 26.17 26.17 0 01-13.36-9.21 25.66 25.66 0 01-5.28-15.67 25.95 25.95 0 0125.92-25.92 25.95 25.95 0 0125.25 31.77 1.75 1.75 0 003.42.8 29.46 29.46 0 00-28.67-36.08zm28.05.12c-.22 0-.46.03-.68.12l-2.68 1.02a1.75 1.75 0 001.25 3.28l2.68-1.02a1.75 1.75 0 00-.57-3.4zm-39.8 10.7c-1.23 0-2.46.29-3.7.85a1.75 1.75 0 101.46 3.19 5.14 5.14 0 014.5 0 1.75 1.75 0 002.32-.87c.4-.88.01-1.92-.87-2.32a8.86 8.86 0 00-3.7-.84zm23.5 0c-1.25 0-2.48.29-3.71.85a1.75 1.75 0 101.46 3.19 5.14 5.14 0 014.49 0 1.75 1.75 0 101.45-3.2 8.86 8.86 0 00-3.7-.83zm22.68 5.95c-.5 0-1.03.02-1.61.07a1.75 1.75 0 10.28 3.5 16.4 16.4 0 0117.7 16.32 16.4 16.4 0 01-24.16 14.4 1.75 1.75 0 00-1.68 3.08 19.9 19.9 0 0027.6-9.34 19.9 19.9 0 0018.13 11.74A19.9 19.9 0 00160 103.68a19.9 19.9 0 00-19.88-19.88 19.9 19.9 0 00-18.13 11.73 19.9 19.9 0 00-18.13-11.73zm-46.58.9a5.15 5.15 0 00-5.14 5.15v3.94a5.15 5.15 0 0010.28 0v-3.94c0-2.84-2.3-5.14-5.14-5.14zm24.3 0a5.15 5.15 0 00-5.14 5.15v3.94a5.15 5.15 0 0010.28 0v-3.94c0-2.84-2.3-5.14-5.14-5.14zm58.54 2.6a16.4 16.4 0 0116.37 16.38 16.4 16.4 0 01-16.37 16.38 16.4 16.4 0 01-16.38-16.38 16.4 16.4 0 0116.38-16.37zm-82.84.91c.9 0 1.63.74 1.63 1.64v3.94a1.63 1.63 0 01-3.26 0v-3.94c0-.9.73-1.64 1.63-1.64zm24.3 0c.9 0 1.64.74 1.64 1.64v3.94a1.63 1.63 0 01-3.27 0v-3.94c0-.9.73-1.64 1.63-1.64zm29.31 5.49a1.75 1.75 0 100 3.5c.5 0 .98.23 1.3.61l.4.49a1.75 1.75 0 102.7-2.25l-.4-.48a5.18 5.18 0 00-4-1.87zm39.4 1.72c-.39 0-.78.13-1.11.4l-.78.64a8.86 8.86 0 01-4.58 1.97l-.08.01a1.75 1.75 0 10.42 3.48h.09c.51-.07 1.02-.17 1.51-.29v1.04a1.75 1.75 0 003.51 0v-2.52c.48-.3.93-.63 1.37-.99l.77-.63a1.75 1.75 0 00-1.12-3.11zm-20.35 0a1.75 1.75 0 00-1.12 3.1l.77.65c.44.35.9.68 1.37.98v2.52a1.75 1.75 0 103.51 0v-1.04c.5.12 1 .22 1.51.28l.09.01a1.75 1.75 0 10.43-3.48l-.09-.01a8.86 8.86 0 01-4.58-1.97l-.77-.64c-.33-.27-.73-.4-1.12-.4zm-64.73 4.64a7.18 7.18 0 00-7.18 7.17v1.94a7.18 7.18 0 0014.35 0v-1.94a7.18 7.18 0 00-7.17-7.17zm43.35.85a1.75 1.75 0 00-.76 3.36 5.05 5.05 0 004.17 0 1.75 1.75 0 10-1.45-3.2c-.45.2-.83.2-1.28 0-.22-.1-.45-.15-.68-.16zm-43.35 2.66a3.67 3.67 0 013.66 3.66v1.94a3.67 3.67 0 01-7.33 0v-1.94a3.67 3.67 0 013.67-3.66zm28.52 4.39c-.63 0-1.23.33-1.55.91a26.1 26.1 0 01-4.1 5.57 1.75 1.75 0 102.52 2.44 29.6 29.6 0 004.66-6.32 1.75 1.75 0 00-1.53-2.6zm10.06 1.36c-1.46 0-2.92.33-4.25.99l-.32.15a1.75 1.75 0 101.55 3.15l.32-.16a6.14 6.14 0 015.4 0l.31.16a1.74 1.74 0 002.35-.8c.43-.87.07-1.92-.8-2.35l-.3-.15a9.62 9.62 0 00-4.26-.99zm36.33.15c-2.2 0-4.38.28-6.5.85l-.07.02a1.75 1.75 0 00.9 3.39l.07-.02c3.66-.98 7.53-.98 11.2 0l.05.02a1.75 1.75 0 10.91-3.39l-.06-.02a25.16 25.16 0 00-6.5-.85zm-70.37 8.95a2.82 2.82 0 00-2.85 2.88l.04 3.52c.01.97.8 1.74 1.76 1.74h.01c.97-.01 1.75-.8 1.74-1.77l-.03-2.86h11.45l-1.9 1.91a2.82 2.82 0 000 4.02l7.1 7.1-2.74 2.75-6.6-6.6a2.85 2.85 0 00-4.02 0l-3.16 3.17-.02-2.02a1.75 1.75 0 00-3.5.04l.03 3.6a2.84 2.84 0 004.85 1.98l3.81-3.81 6.6 6.6a2.82 2.82 0 004.02 0l3.68-3.7a2.82 2.82 0 000-4.02l-7.1-7.1 2.57-2.57a2.84 2.84 0 00-2-4.86z"/></svg>