<svg xmlns="http://www.w3.org/2000/svg" viewBox="0 0 200 200"><path fill="#fff" d="M100.03 46.33a8.92 8.92 0 00-2.34 17.5v5.72a2.34 2.34 0 004.68 0v-5.72a8.92 8.92 0 00-2.34-17.5zm0 4.69a4.22 4.22 0 11-.01 8.44 4.22 4.22 0 01.01-8.44zM59.07 61.77a8.92 8.92 0 104.42 16.64l4.05 4.05a2.34 2.34 0 103.31-3.31l-4.04-4.05a8.85 8.85 0 00-1.44-10.72 8.85 8.85 0 00-6.3-2.6zm81.71.23a8.92 8.92 0 00-7.73 13.32L129 79.37a2.34 2.34 0 003.32 3.32l4.05-4.05a8.85 8.85 0 0010.72-1.44 8.85 8.85 0 002.6-6.3c0-2.37-.93-4.6-2.6-6.29a8.85 8.85 0 00-6.3-2.6zm-81.7 4.46a4.2 4.2 0 012.98 7.2 4.22 4.22 0 11-2.99-7.2zm81.7.23a4.2 4.2 0 012.99 7.2 4.22 4.22 0 11-2.99-7.2zM96.65 78.67a13.03 13.03 0 00-13 13.02v12.67c0 4.58 1.88 8.72 4.93 11.7h-.12a2.36 2.36 0 00-1.01.07 23.82 23.82 0 00-21.65 23.69v11.5c0 1.3 1.05 2.35 2.35 2.35h63.7c1.3 0 2.35-1.05 2.35-2.34v-11.51c0-12.4-9.53-22.6-21.65-23.7-.33-.09-.67-.11-1-.06h-.13a16.3 16.3 0 004.94-11.7V81.02c0-1.3-1.05-2.35-2.34-2.35zm0 4.69h15.02v6.27a5.75 5.75 0 01-5.75 5.75h-17.6v-3.69c0-4.6 3.74-8.33 8.33-8.33zm15.02 14.97v6.03c0 6.43-5.23 11.67-11.67 11.67a11.68 11.68 0 01-11.67-11.67v-4.3h17.6c2.12 0 4.1-.63 5.74-1.73zm-62.76 4.38a8.92 8.92 0 000 17.82c4.1 0 7.56-2.79 8.59-6.57h5.72a2.34 2.34 0 000-4.68H57.5a8.92 8.92 0 00-8.6-6.57zm102.18.06a8.92 8.92 0 00-8.59 6.57h-5.72a2.34 2.34 0 000 4.68h5.72a8.92 8.92 0 108.6-11.25zM48.91 107.4a4.22 4.22 0 11-.01 8.45 4.22 4.22 0 010-8.45zm102.18.06a4.22 4.22 0 110 8.45 4.22 4.22 0 010-8.45zm-23.2 1.87a2.36 2.36 0 00-2.34 2.35 2.35 2.35 0 002.34 2.34 2.35 2.35 0 001.66-4 2.36 2.36 0 00-1.66-.69zm-34.11 11.39h12.44l-6.22 6.22zm-6.49.14l11.05 11.05a2.34 2.34 0 003.32 0l11.05-11.05a19.13 19.13 0 0116.8 18.96v9.16H70.5v-6.74h19.13a2.34 2.34 0 000-4.69h-19a19.13 19.13 0 0116.67-16.69zm12.71 16.7a2.36 2.36 0 00-2.34 2.34 2.36 2.36 0 002.34 2.34 2.36 2.36 0 002.34-2.34 2.36 2.36 0 00-2.34-2.35z"/></svg>